<svg version="1.0" xmlns="http://www.w3.org/2000/svg"
 width="512.000000pt" height="512.000000pt" viewBox="0 0 512.000000 512.000000"
 preserveAspectRatio="xMidYMid meet">
<g transform="translate(0.000000,512.000000) scale(0.100000,-0.100000)"
fill="#000000" stroke="none">
<path d="M1720 4854 c-950 -60 -1385 -486 -1450 -1419 -13 -182 -13 -1568 0
-1750 55 -792 383 -1221 1041 -1364 243 -52 270 -54 1129 -58 844 -5 1050 1
1256 36 567 98 894 359 1054 840 43 130 61 210 87 391 16 113 18 213 18 1030
0 817 -2 917 -18 1030 -26 181 -44 261 -87 391 -170 512 -527 773 -1180 860
-79 11 -1705 22 -1850 13z m1716 -334 c731 -59 1028 -357 1084 -1090 13 -176
13 -1564 0 -1740 -19 -250 -59 -422 -135 -577 -156 -319 -440 -472 -949 -513
-169 -13 -1583 -13 -1752 0 -731 59 -1028 358 -1084 1090 -13 176 -13 1564 0
1740 55 725 355 1031 1065 1089 150 12 1620 13 1771 1z"/>
<path d="M1925 3691 c-24 -11 -115 -95 -225 -205 l-184 -186 -36 35 c-60 58
-122 70 -196 36 -57 -26 -87 -77 -86 -147 0 -69 17 -96 130 -206 114 -112 171
-137 249 -108 32 12 547 521 569 562 8 15 14 49 14 76 0 120 -126 196 -235
143z"/>
<path d="M2562 3373 c-68 -33 -101 -111 -81 -185 13 -52 73 -112 119 -122 18
-3 292 -6 609 -6 l577 0 44 23 c67 33 93 78 88 152 -4 63 -20 94 -67 131 -25
18 -49 19 -641 21 -552 3 -618 1 -648 -14z"/>
<path d="M1951 2210 c-26 -6 -82 -56 -232 -206 l-198 -198 -40 37 c-75 67
-171 70 -237 6 -31 -30 -58 -103 -49 -133 2 -6 6 -24 10 -41 8 -36 196 -231
242 -251 42 -18 107 -18 147 1 42 20 542 522 555 558 6 16 11 50 11 76 0 104
-101 178 -209 151z"/>
<path d="M2580 1889 c-41 -16 -90 -71 -101 -112 -19 -72 13 -148 80 -185 l40
-22 610 2 c601 3 610 3 638 24 99 74 99 204 0 278 -28 21 -37 21 -635 23 -388
1 -616 -2 -632 -8z"/>
</g>
</svg>
