<svg width="17" height="11" viewBox="0 0 17 11" fill="none" xmlns="http://www.w3.org/2000/svg">
<path id="Vector" d="M0.621133 0.710324C0.394724 0.814398 0.163694 1.04517 0.0712821 1.26689C-0.0303711 1.50219 -0.0211299 1.95921 0.0851439 2.18546C0.2099 2.44338 7.81078 9.86881 8.04644 9.96836C8.26822 10.0543 8.73028 10.0543 8.95207 9.96836C9.18772 9.86881 16.7886 2.44338 16.9134 2.18546C17.0289 1.94111 17.0289 1.47956 16.9134 1.23522C16.8071 1.0135 16.5714 0.787248 16.345 0.696749C16.1232 0.60625 15.6612 0.60625 15.4394 0.692224C15.3193 0.741999 14.2565 1.75559 11.8862 4.07688L8.49925 7.38914L5.11698 4.07688C2.74199 1.75559 1.67925 0.741999 1.55911 0.692224C1.31884 0.597201 0.852163 0.60625 0.621133 0.710324Z" fill="black"/>
</svg>
