<?xml version="1.0" encoding="UTF-8"?>
<svg xmlns="http://www.w3.org/2000/svg" xmlns:xlink="http://www.w3.org/1999/xlink" width="612" height="792" viewBox="0 0 612 792">
<path fill="none" stroke-width="1.5" stroke-linecap="round" stroke-linejoin="round" stroke="rgb(0%, 0%, 0%)" stroke-opacity="1" stroke-miterlimit="4" d="M 4.699219 4 L 19.300781 4 C 19.460937 4 19.613281 4.03125 19.757812 4.089844 C 19.906249 4.152344 20.035156 4.238281 20.148437 4.351563 C 20.261718 4.464844 20.347656 4.59375 20.410156 4.742188 C 20.468749 4.886719 20.499999 5.039063 20.499999 5.199219 L 20.499999 18.800781 C 20.499999 18.960937 20.468749 19.113281 20.410156 19.257812 C 20.347656 19.40625 20.261718 19.535156 20.148437 19.648437 C 20.035156 19.761718 19.906249 19.847656 19.757812 19.910156 C 19.613281 19.968749 19.460937 19.999999 19.300781 19.999999 L 4.699219 19.999999 C 4.539063 19.999999 4.386719 19.968749 4.242188 19.910156 C 4.09375 19.847656 3.964844 19.761718 3.851563 19.648437 C 3.738281 19.535156 3.652344 19.40625 3.589844 19.257812 C 3.53125 19.113281 3.5 18.960937 3.5 18.800781 L 3.5 5.199219 C 3.5 5.039063 3.53125 4.886719 3.589844 4.742188 C 3.652344 4.59375 3.738281 4.464844 3.851563 4.351563 C 3.964844 4.238281 4.09375 4.152344 4.242188 4.089844 C 4.386719 4.03125 4.539063 4 4.699219 4 Z M 4.699219 4 " transform="matrix(1, 0, 0, 1, 6, 6)"/>
<path fill="none" stroke-width="1.5" stroke-linecap="round" stroke-linejoin="round" stroke="rgb(0%, 0%, 0%)" stroke-opacity="1" stroke-miterlimit="4" d="M 7 7 L 9 7 M 11 7 L 13 7 M 15 7 L 17 7 M 7 10 L 9 10 M 11 10 L 13 10 M 15 10 L 17 10 M 7 13 L 9 13 M 11 13 L 13 13 M 15 13 L 17 13 " transform="matrix(1, 0, 0, 1, 6, 6)"/>
<path fill="none" stroke-width="1.5" stroke-linecap="round" stroke-linejoin="round" stroke="rgb(0%, 0%, 0%)" stroke-opacity="1" stroke-miterlimit="4" d="M 10.800781 16 L 13.199218 16 C 13.421875 16 13.609375 16.078125 13.765625 16.234375 C 13.921875 16.390625 14 16.578125 14 16.800781 L 14 19.199218 C 14 19.421875 13.921875 19.609374 13.765625 19.765624 C 13.609375 19.921874 13.421875 19.999999 13.199218 19.999999 L 10.800781 19.999999 C 10.578125 19.999999 10.390625 19.921874 10.234375 19.765624 C 10.078125 19.609374 10 19.421875 10 19.199218 L 10 16.800781 C 10 16.578125 10.078125 16.390625 10.234375 16.234375 C 10.390625 16.078125 10.578125 16 10.800781 16 Z M 10.800781 16 " transform="matrix(1, 0, 0, 1, 6, 6)"/>
<path fill="none" stroke-width="1.5" stroke-linecap="round" stroke-linejoin="round" stroke="rgb(0%, 0%, 0%)" stroke-opacity="1" stroke-miterlimit="4" d="M 12 3 L 12 5 " transform="matrix(1, 0, 0, 1, 6, 6)"/>
</svg>
