<svg width="24" height="24" viewBox="0 0 24 24" fill="none" xmlns="http://www.w3.org/2000/svg">
<g clip-path="url(#clip0_5_4182)">
<path d="M10.0751 4.88665C10.7061 4.73896 11.3521 4.66513 12.0001 4.66665C18.4167 4.66665 22.0834 12 22.0834 12C21.527 13.041 20.8634 14.021 20.1034 14.9241M13.9434 13.9433C13.6917 14.2135 13.3881 14.4302 13.0507 14.5805C12.7134 14.7308 12.3492 14.8116 11.98 14.8182C11.6108 14.8247 11.244 14.7567 10.9016 14.6184C10.5591 14.4801 10.2481 14.2743 9.98694 14.0131C9.7258 13.752 9.51994 13.4409 9.38163 13.0985C9.24332 12.7561 9.1754 12.3893 9.18191 12.0201C9.18843 11.6508 9.26925 11.2867 9.41955 10.9493C9.56985 10.612 9.78656 10.3084 10.0567 10.0566M17.4451 17.445C15.8781 18.6394 13.9701 19.3011 12.0001 19.3333C5.58341 19.3333 1.91675 12 1.91675 12C3.05698 9.87505 4.63846 8.01854 6.55508 6.55498L17.4451 17.445Z" stroke="#9A9A9A" stroke-width="2" stroke-linecap="round" stroke-linejoin="round"/>
<path d="M1.91675 1.91663L22.0834 22.0833" stroke="#9A9A9A" stroke-width="2" stroke-linecap="round" stroke-linejoin="round"/>
</g>
<defs>
<clipPath id="clip0_5_4182">
<rect width="22" height="22" fill="white" transform="translate(1 1)"/>
</clipPath>
</defs>
</svg>
