<svg width="24" height="24" viewBox="0 0 24 24" fill="none" xmlns="http://www.w3.org/2000/svg">
<g clip-path="url(#clip0_36_98)">
<path d="M9.04208 0.0702551C7.97333 0.332755 7.10146 1.14838 6.71239 2.24526L6.58583 2.60151L6.57177 4.31713L6.55771 6.03744L6.33739 6.09369C5.82646 6.22026 5.43739 6.54369 5.20771 7.02651C5.10458 7.25151 5.08583 7.34994 5.08583 7.73432C5.08583 8.26869 5.17021 8.49369 5.51708 8.86401C5.75614 9.12182 6.21083 9.37494 6.43114 9.37494C6.54364 9.37494 6.56239 9.39838 6.58583 9.54838C6.60458 9.64682 6.64208 9.87182 6.67958 10.0546C6.71239 10.2328 6.74052 10.3828 6.73583 10.3874C6.73114 10.3921 6.55302 10.4812 6.34208 10.5937C5.42802 11.0624 4.71552 12.0328 4.55146 13.0312C4.50458 13.289 4.36396 15.4828 4.35458 16.0546C4.35458 16.2234 4.32646 16.2609 4.07333 16.4671C3.50146 16.9265 2.99052 17.7046 2.76083 18.4687C2.65302 18.8109 2.65302 18.8812 2.63427 21.2999C2.62021 24.1171 2.60146 23.9999 2.97177 23.9999C3.11708 23.9999 3.19677 23.9718 3.26239 23.9015C3.34677 23.8078 3.35146 23.6765 3.37489 21.3562C3.40302 18.9562 3.40302 18.9093 3.51083 18.6093C3.83896 17.6812 4.43896 16.9968 5.27333 16.5937C5.54521 16.4624 6.04208 16.3124 7.05458 16.0546C7.82802 15.8578 8.60146 15.6562 8.77021 15.6093L9.08427 15.5249L9.30927 15.7593C10.0358 16.5046 10.9311 16.8749 11.9999 16.8749C13.0686 16.8749 13.964 16.5046 14.6858 15.7593L14.9155 15.5296L15.4358 15.6656C15.7265 15.7453 15.9655 15.8109 15.9749 15.8203C16.003 15.8437 14.6952 18.4031 14.6061 18.5015C14.6015 18.5062 14.4093 18.4499 14.1796 18.3749C13.364 18.1171 13.0452 18.0703 11.9999 18.0703C11.2499 18.0703 10.9499 18.089 10.6405 18.1546C9.77802 18.3374 8.80771 18.7359 8.15614 19.1671L7.88427 19.3499L7.73427 19.1953C7.48583 18.9374 7.16708 18.8249 6.70302 18.8249C6.37021 18.8203 6.26239 18.8437 6.03739 18.9468C5.52177 19.1859 5.28271 19.4953 4.89364 20.414C4.73427 20.7937 4.71552 20.8781 4.71552 21.2578C4.71083 21.6187 4.72958 21.7171 4.83739 21.9468C4.90771 22.0968 5.05771 22.3171 5.17489 22.4437L5.38583 22.6687L5.30146 22.9265C5.24989 23.0671 5.18896 23.3062 5.15146 23.4515C5.09989 23.7046 5.09989 23.7328 5.18896 23.8499C5.29208 23.9906 5.54989 24.0421 5.71396 23.9578C5.80771 23.9062 5.82177 23.8687 6.00458 23.2406L6.10771 22.8749H6.27646C6.51552 22.8703 6.79677 22.7343 6.97958 22.5187C7.18114 22.2937 7.66864 21.2765 7.87958 20.6531C8.03896 20.1937 8.03896 20.189 8.34364 19.964C9.01396 19.4671 10.0733 19.0218 10.9405 18.8671C11.4796 18.7734 12.5108 18.7734 13.0546 18.8718C13.9265 19.0218 14.9811 19.4624 15.6561 19.964C15.9608 20.189 15.9608 20.1937 16.1202 20.6531C16.3311 21.2765 16.8186 22.2937 17.0202 22.5187C17.203 22.7343 17.4843 22.8703 17.7233 22.8749H17.8921L17.9952 23.2406C18.178 23.8687 18.1921 23.9062 18.2858 23.9578C18.4499 24.0421 18.7077 23.9906 18.8108 23.8499C18.8999 23.7328 18.8999 23.7046 18.8483 23.4515C18.8108 23.3062 18.7499 23.0671 18.6983 22.9265L18.614 22.6687L18.8249 22.4437C18.9421 22.3171 19.0921 22.0968 19.1624 21.9468C19.2702 21.7171 19.289 21.6187 19.2843 21.2578C19.2843 20.8781 19.2655 20.7937 19.1061 20.414C18.8202 19.7296 18.6561 19.4624 18.3843 19.2187L18.1358 18.9937L18.3093 18.6515C18.403 18.4593 18.6374 17.9718 18.8249 17.564L19.1624 16.8234L19.4108 17.0296C19.8843 17.4093 20.2593 17.9624 20.4936 18.6093C20.6015 18.9093 20.6015 18.9468 20.6249 21.3562C20.6483 23.6765 20.653 23.8078 20.7374 23.9015C20.8593 24.0328 21.1499 24.0374 21.2811 23.9062C21.3796 23.8078 21.3796 23.7749 21.3655 21.314C21.3468 18.8906 21.3468 18.8109 21.2436 18.4781C21.1124 18.0421 20.8686 17.5499 20.6061 17.1843C20.414 16.9171 19.9686 16.4624 19.753 16.3124C19.6593 16.2468 19.6499 16.1624 19.5749 14.7421C19.5327 13.9171 19.4671 13.1062 19.4296 12.9374C19.228 11.9578 18.5436 11.0484 17.6577 10.5937C17.4468 10.4812 17.2686 10.3921 17.264 10.3874C17.2593 10.3828 17.2874 10.2328 17.3202 10.0546C17.3577 9.87182 17.3952 9.64682 17.414 9.54838C17.4374 9.39838 17.4561 9.37494 17.5686 9.37494C17.789 9.37494 18.2436 9.12182 18.4827 8.86401C18.8296 8.49369 18.914 8.26869 18.914 7.73432C18.914 7.34994 18.8952 7.25151 18.7921 7.02651C18.5624 6.54369 18.1733 6.22026 17.6624 6.09369L17.4374 6.03744V4.48119C17.4374 3.56244 17.4186 2.80776 17.3858 2.64369C17.1843 1.52807 16.3452 0.557755 15.2249 0.149943L14.8827 0.0233801L12.0936 0.0140051C9.86239 0.00931759 9.25302 0.0186926 9.04208 0.0702551ZM14.8124 0.815568C15.5015 1.04057 16.0921 1.51869 16.3968 2.09057C16.6546 2.58744 16.6874 2.82182 16.6874 4.37338V5.77026L16.5843 5.73744C16.5233 5.72338 16.2561 5.60151 15.9843 5.47494C15.2718 5.14213 14.8546 4.87494 13.8796 4.12963C13.664 3.96088 13.5983 3.93744 13.3874 3.93744C13.1765 3.93744 13.0968 3.97026 12.7733 4.17651C12.5671 4.30307 12.2061 4.51869 11.9671 4.64526C11.7327 4.77182 11.5124 4.90776 11.4843 4.94526C11.4515 4.98276 11.428 5.09057 11.428 5.18901C11.428 5.39526 11.564 5.53119 11.7702 5.53119C11.9249 5.53119 12.4546 5.27338 13.0077 4.93119L13.378 4.69682L13.6874 4.94526C14.414 5.52182 15.5811 6.18744 16.3733 6.47338L16.6874 6.58588V7.97338C16.6874 9.45932 16.6546 9.79682 16.4343 10.4343C15.8952 12.0234 14.5265 13.1999 12.8202 13.5515C12.4593 13.6265 11.5405 13.6265 11.1796 13.5515C9.32333 13.1718 7.94989 11.8828 7.44364 10.0406C7.34989 9.71244 7.34052 9.53432 7.32177 8.16557L7.30771 6.65619H7.55614C8.43739 6.65619 10.3265 6.25307 10.5374 6.01869C10.7202 5.81244 10.6499 5.54057 10.3874 5.43744C10.2843 5.39994 10.1765 5.41401 9.85302 5.50776C9.10302 5.71869 8.04833 5.90151 7.56083 5.90619H7.31239V4.43901C7.31239 3.29994 7.33114 2.91088 7.38271 2.67651C7.57958 1.84213 8.26396 1.12026 9.11708 0.843693C9.46864 0.726505 9.86708 0.712443 12.2108 0.721818C14.3202 0.731193 14.5827 0.740568 14.8124 0.815568ZM6.54364 8.61088C6.45458 8.70463 6.03739 8.36713 5.89677 8.09526C5.69052 7.68276 5.88739 7.13901 6.32802 6.90463L6.53896 6.79213L6.55302 7.69213C6.55771 8.18901 6.55302 8.60151 6.54364 8.61088ZM17.8405 7.00776C18.1452 7.24213 18.2624 7.69682 18.1124 8.05307C17.9999 8.32026 17.6718 8.62494 17.4843 8.62494C17.4561 8.62494 17.4374 8.32026 17.4374 7.71088V6.79682L17.564 6.84838C17.639 6.87651 17.7608 6.94682 17.8405 7.00776ZM7.18114 11.4468C7.53271 12.1687 8.24521 12.9609 8.97646 13.4531L9.33739 13.6968L9.31864 14.0859C9.30458 14.4234 9.29052 14.4937 9.18739 14.6015C9.12177 14.6718 9.01864 14.7468 8.95771 14.7703C8.89677 14.7937 8.13739 14.9953 7.27021 15.2156C6.40302 15.4359 5.57333 15.6609 5.41864 15.7078C5.26864 15.7593 5.13739 15.7968 5.13271 15.7874C5.09521 15.7453 5.25927 13.3359 5.32021 13.064C5.42333 12.5812 5.68583 12.1265 6.07021 11.7421C6.33271 11.4749 6.85771 11.1187 6.98427 11.1093C6.99833 11.1093 7.08739 11.264 7.18114 11.4468ZM17.3155 11.2593C17.9343 11.5874 18.5202 12.3468 18.6749 13.0359C18.7452 13.3359 18.8671 15.1453 18.839 15.3796L18.8202 15.5062L17.9765 15.1593C17.0108 14.7609 16.8468 14.7421 16.4952 14.9765L16.2983 15.1031L15.6374 14.9343C14.7702 14.7093 14.7046 14.6531 14.6811 14.0906L14.6624 13.6968L15.0233 13.4531C15.7546 12.9609 16.4671 12.1687 16.8186 11.4468C16.9124 11.264 16.9968 11.1093 17.0061 11.1093C17.0155 11.1093 17.1561 11.1749 17.3155 11.2593ZM11.0108 14.2781C11.803 14.4328 12.9327 14.3624 13.6593 14.1093L13.9218 14.0203V14.2218C13.9218 14.4749 14.0343 14.8593 14.1561 15.0093L14.2499 15.1312L14.0249 15.3328C12.8765 16.4015 11.1233 16.4015 9.97489 15.3328L9.74989 15.1312L9.84364 15.0093C9.96552 14.8593 10.078 14.4749 10.078 14.2265V14.0296L10.3405 14.114C10.4858 14.1609 10.7858 14.2359 11.0108 14.2781ZM17.7655 15.8906C18.164 16.0546 18.5108 16.2046 18.5343 16.2234C18.5811 16.2656 18.3515 16.8046 17.7655 18.0234L17.3999 18.7828L17.128 18.8156C16.7952 18.8531 16.4296 19.0171 16.2515 19.2093L16.1155 19.3499L15.853 19.1718C15.703 19.0781 15.5343 18.9703 15.4686 18.9374C15.403 18.9046 15.3421 18.8718 15.3327 18.8624C15.2952 18.8296 16.9499 15.5718 16.9921 15.5859C17.0202 15.5906 17.3671 15.7312 17.7655 15.8906ZM7.12489 19.6828C7.33583 19.8374 7.34052 19.9453 7.14833 20.4609C6.93739 21.0281 6.56239 21.8203 6.42177 21.9937C6.22958 22.2421 5.84521 22.1249 5.59208 21.7453C5.39052 21.4406 5.40927 21.1453 5.67177 20.5359C5.91083 19.9874 6.12177 19.7156 6.39833 19.6124C6.62802 19.5328 6.96083 19.5609 7.12489 19.6828ZM17.7515 19.6921C17.9765 19.8328 18.103 20.0203 18.3327 20.5546C18.5905 21.1453 18.6093 21.4406 18.4077 21.7453C18.253 21.9796 18.0327 22.1249 17.8265 22.1249C17.7093 22.1249 17.6483 22.0874 17.5546 21.9656C17.4046 21.7687 16.978 20.8406 16.7999 20.3109L16.664 19.9265L16.7624 19.7953C16.9546 19.5374 17.4186 19.4859 17.7515 19.6921Z" fill="black"/>
<path d="M9.77813 7.41092C9.65625 7.50467 9.65625 7.51404 9.65625 8.08592C9.65625 8.65779 9.65625 8.66717 9.77813 8.76092C9.98906 8.92967 10.2703 8.85467 10.3594 8.61092C10.4203 8.42811 10.4203 7.72967 10.3594 7.56561C10.2609 7.30779 9.99844 7.23748 9.77813 7.41092Z" fill="black"/>
<path d="M13.7672 7.36867C13.6453 7.46711 13.5938 7.66867 13.5938 8.08117C13.5938 8.54524 13.65 8.73274 13.8094 8.80774C13.9781 8.88274 14.0813 8.87336 14.2219 8.76086C14.3438 8.66711 14.3438 8.65774 14.3438 8.08586C14.3438 7.51399 14.3438 7.50461 14.2219 7.41086C14.0813 7.29836 13.8844 7.2843 13.7672 7.36867Z" fill="black"/>
<path d="M11.039 10.8843C10.8046 11.0109 10.7577 11.2593 10.9358 11.4609C11.3015 11.8781 12.6796 11.8781 13.0687 11.4562C13.2608 11.2406 13.1624 10.9218 12.8765 10.8515C12.8155 10.8328 12.6608 10.8656 12.5108 10.9265C12.1827 11.0578 11.8171 11.0578 11.4937 10.9265C11.2124 10.814 11.1702 10.8093 11.039 10.8843Z" fill="black"/>
<path d="M11.2498 20.278C10.4998 20.428 9.85297 20.6811 9.72641 20.878C9.62329 21.0327 9.67016 21.2577 9.82485 21.3561C9.96547 21.4499 10.1061 21.4264 10.7342 21.2061C11.1702 21.0514 11.292 21.0327 11.7889 21.0093C12.2858 20.9905 13.0311 21.0561 13.0311 21.1218C13.0311 21.1593 12.2155 22.3593 11.7936 22.9452C11.353 23.5593 11.3014 23.7233 11.4889 23.9108C11.5592 23.9811 11.6295 23.9999 11.7795 23.9905C11.967 23.9764 11.9905 23.9577 12.2952 23.5546C12.4686 23.3202 12.867 22.753 13.1811 22.2889C13.4905 21.8249 13.767 21.4358 13.7905 21.4311C13.903 21.3843 14.817 22.0686 15.0561 22.3733L15.1827 22.5374L14.8592 23.0108C14.592 23.3952 14.5311 23.5218 14.5311 23.6671C14.5311 23.9108 14.6483 24.0093 14.9108 23.9905C15.1077 23.9764 15.1217 23.9624 15.3748 23.6061L15.6327 23.2358L15.7639 23.5358C15.942 23.9343 16.0077 23.9999 16.2233 23.9999C16.4389 23.9999 16.5936 23.8593 16.5936 23.6671C16.5936 23.4655 16.2983 22.8186 16.003 22.378C15.3702 21.4218 14.442 20.7514 13.2889 20.4093C12.9233 20.3014 12.7639 20.2827 12.117 20.2733C11.7045 20.2639 11.3155 20.2686 11.2498 20.278Z" fill="black"/>
<path d="M8.34844 21.9139C7.93594 22.3593 7.40625 23.3483 7.40625 23.6671C7.40625 23.8593 7.56094 23.9999 7.77656 23.9999C8.00156 23.9999 8.03437 23.9624 8.33437 23.3343C8.47031 23.0577 8.67187 22.7202 8.78437 22.5796C9.12656 22.1577 9.16406 22.0358 8.99531 21.8249C8.92031 21.7311 8.85937 21.703 8.72344 21.703C8.56875 21.703 8.5125 21.7358 8.34844 21.9139Z" fill="black"/>
</g>
<defs>
<clipPath id="clip0_36_98">
<rect width="24" height="24" fill="white"/>
</clipPath>
</defs>
</svg>
