<svg width="21" height="21" viewBox="0 0 21 21" fill="none" xmlns="http://www.w3.org/2000/svg">
<g clip-path="url(#clip0_36_64)">
<path d="M19.4504 10.3203C18.5994 8.94915 17.8712 7.80507 17.8331 7.7745C17.7823 7.7352 17.2784 7.7221 15.6569 7.7221H13.5484V6.59549C13.5484 5.59988 13.5357 5.45141 13.4679 5.29421C13.3514 5.0337 13.153 4.82138 12.9048 4.6916L12.6847 4.57806H11.5161V5.30687C12.4052 5.31822 12.5289 5.33787 12.5873 5.37717C12.6614 5.42745 12.7248 5.49283 12.7736 5.56931C12.8456 5.67848 12.8498 5.95795 12.8625 9.8487L12.871 14.0102H0.677419V9.93603C0.677419 7.37713 0.694355 5.80948 0.719758 5.70904C0.745752 5.61888 0.792407 5.53649 0.855783 5.46885C0.919158 5.40121 0.997391 5.35029 1.08387 5.32041C1.10292 5.31429 1.31843 5.30905 1.68635 5.30425V4.58985C0.88488 4.60077 0.77734 4.62173 0.694356 4.66103C0.441771 4.78128 0.235909 4.98591 0.11008 5.24181L0 5.46887V12.0976C0 18.6695 0 18.7262 0.0846774 18.8136C0.169355 18.9009 0.224395 18.9009 0.922983 18.9009H1.67661L1.77823 19.2555C1.93723 19.8257 2.29449 20.3154 2.78165 20.631C3.52258 21.1244 4.60645 21.1244 5.34738 20.631C5.89086 20.2674 6.27404 19.6981 6.41431 19.0459L6.44395 18.9018H14.5476L14.6492 19.2555C14.8082 19.8257 15.1655 20.3154 15.6526 20.631C16.3935 21.1244 17.4774 21.1244 18.2183 20.631C18.7618 20.2674 19.145 19.6981 19.2853 19.0459L19.3149 18.9018H20.0728C20.7756 18.9018 20.8349 18.8974 20.9153 18.8144C20.9958 18.7315 21 18.6703 21 15.7665V12.8102L19.4504 10.3203ZM5.58024 19.2633C5.43206 19.5865 5.06794 19.962 4.75464 20.1149C4.53448 20.2197 4.45827 20.2328 4.06452 20.2328C3.64536 20.2328 3.59879 20.224 3.34053 20.093C2.99408 19.9135 2.7155 19.62 2.54879 19.259C2.44718 19.0406 2.43448 18.9577 2.43448 18.5516C2.43448 18.1455 2.44718 18.0625 2.54879 17.8442C2.90444 17.0582 3.77661 16.6564 4.56835 16.9184C4.78925 16.9935 4.99296 17.1144 5.16696 17.2735C5.34097 17.4327 5.4816 17.6269 5.58024 17.8442C5.68185 18.0625 5.69456 18.1455 5.69456 18.5516C5.69456 18.9577 5.68185 19.0372 5.58024 19.2633ZM12.871 18.2022H6.45665L6.33811 17.818C6.09677 17.0276 5.57601 16.4817 4.81391 16.2154C4.1619 15.9927 3.34899 16.0975 2.77319 16.4774C2.28913 16.7925 1.93484 17.2807 1.77823 17.8485L1.67661 18.2022H0.677419V14.7089H12.871V18.2022ZM18.0575 9.47403L19.0101 11.0068C19.5351 11.8495 19.9712 12.5569 19.9754 12.5744C19.9796 12.5919 18.9212 12.6137 17.6171 12.6137H15.2419V9.46967H16.6518L18.0575 9.47403ZM18.4512 19.2642C18.303 19.5874 17.9389 19.9629 17.6256 20.1157C17.4054 20.2205 17.3292 20.2336 16.9355 20.2336C16.5163 20.2336 16.4698 20.2249 16.2115 20.0939C15.865 19.9144 15.5865 19.6209 15.4198 19.2599C15.3181 19.0415 15.3054 18.9586 15.3054 18.5524C15.3054 18.1463 15.3181 18.0634 15.4198 17.845C15.7754 17.059 16.6476 16.6573 17.4393 16.9193C17.6602 16.9944 17.8639 17.1152 18.0379 17.2744C18.2119 17.4336 18.3526 17.6278 18.4512 17.845C18.5528 18.0634 18.5655 18.1463 18.5655 18.5524C18.5655 18.9586 18.5528 19.0372 18.4512 19.2633V19.2642ZM20.3226 15.4084H20.005C19.4843 15.4084 19.2895 15.2687 19.3657 14.9455C19.4038 14.7883 19.6071 14.7141 19.9966 14.7097H20.3226V15.4084ZM20.3226 14.0111H19.8569C19.3319 14.0111 19.1625 14.0635 18.9296 14.2862C18.7264 14.487 18.629 14.7272 18.629 15.0503C18.629 15.3735 18.7095 15.5918 18.8958 15.797C19.1244 16.0459 19.3065 16.1071 19.8484 16.1071H20.3226V18.2031H19.3276L19.2091 17.8188C18.9677 17.0285 18.447 16.4826 17.6849 16.2162C17.1969 16.0591 16.6741 16.0591 16.1861 16.2162C15.4198 16.4826 14.8651 17.0678 14.6492 17.8494L14.5476 18.2031H13.5484V8.42165H17.3885L17.5028 8.59632L17.6129 8.77099H16.1734C14.7889 8.77099 14.7296 8.77536 14.6492 8.85832C14.5688 8.94129 14.5645 9.00243 14.5645 11.0417C14.5645 13.0809 14.5688 13.1421 14.6492 13.225C14.7296 13.308 14.7889 13.3124 17.5282 13.3124H20.3226V14.0111Z" fill="black"/>
<path d="M15.4112 14.0102C14.7888 14.0102 14.7253 14.0189 14.6491 14.0975C14.5941 14.1543 14.5645 14.2416 14.5645 14.3595C14.5645 14.4774 14.5941 14.5648 14.6491 14.6215C14.7253 14.7001 14.7888 14.7089 15.4112 14.7089C16.0336 14.7089 16.0971 14.7001 16.1733 14.6215C16.2284 14.5648 16.258 14.4774 16.258 14.3595C16.258 14.2416 16.2284 14.1543 16.1733 14.0975C16.0971 14.0189 16.0336 14.0102 15.4112 14.0102Z" fill="black"/>
<path d="M10.1613 16.1062C11.6305 16.1062 11.6897 16.1018 11.7702 16.0189C11.8252 15.9621 11.8549 15.8748 11.8549 15.7569C11.8549 15.639 11.8252 15.5516 11.7702 15.4949C11.6897 15.4119 11.6305 15.4075 10.1613 15.4075C8.69217 15.4075 8.63289 15.4119 8.55245 15.4949C8.49741 15.5516 8.46777 15.639 8.46777 15.7569C8.46777 15.8748 8.49741 15.9621 8.55245 16.0189C8.63289 16.1018 8.69217 16.1062 10.1613 16.1062Z" fill="black"/>
<path d="M11.0079 16.4556C10.3855 16.4556 10.322 16.4643 10.2458 16.5429C10.1908 16.5997 10.1611 16.687 10.1611 16.8049C10.1611 16.9228 10.1908 17.0101 10.2458 17.0669C10.322 17.1455 10.3855 17.1542 11.0079 17.1542C11.6303 17.1542 11.6938 17.1455 11.77 17.0669C11.825 17.0101 11.8547 16.9228 11.8547 16.8049C11.8547 16.687 11.825 16.5997 11.77 16.5429C11.6938 16.4643 11.6303 16.4556 11.0079 16.4556Z" fill="black"/>
<path d="M4.47939 17.5734C4.25923 17.4773 3.83161 17.4861 3.61991 17.5865C3.25157 17.7612 3.04834 18.1105 3.04834 18.5603C3.05257 19.1804 3.45903 19.5996 4.06447 19.5996C4.66991 19.5996 5.0806 19.1804 5.0806 18.5516C5.0806 18.0974 4.8562 17.735 4.47939 17.5734ZM4.27616 18.7699C4.22696 18.8232 4.16131 18.8571 4.09048 18.8659C4.01965 18.8747 3.94807 18.8577 3.88804 18.818C3.82801 18.7782 3.78329 18.7181 3.76154 18.6481C3.73979 18.578 3.74239 18.5023 3.76888 18.434C3.79538 18.3657 3.84411 18.309 3.90672 18.2737C3.96932 18.2384 4.04188 18.2268 4.11193 18.2407C4.18198 18.2546 4.24515 18.2932 4.29057 18.35C4.33599 18.4067 4.36084 18.478 4.36084 18.5516C4.35793 18.6322 4.328 18.7094 4.27616 18.7699Z" fill="black"/>
<path d="M17.3505 17.5734C17.1303 17.4773 16.7027 17.4861 16.491 17.5865C16.1227 17.7612 15.9194 18.1105 15.9194 18.5603C15.9237 19.1804 16.3301 19.5996 16.9356 19.5996C17.541 19.5996 17.9517 19.1804 17.9517 18.5516C17.9517 18.0974 17.7273 17.735 17.3505 17.5734ZM17.1473 18.7699C16.9652 18.9577 16.6392 18.8179 16.6392 18.5516C16.6402 18.4708 16.6717 18.3936 16.7271 18.3365C16.7825 18.2794 16.8573 18.2469 16.9356 18.2459C16.9942 18.2465 17.0513 18.2648 17.0999 18.2985C17.1486 18.3323 17.1865 18.3801 17.209 18.4359C17.2316 18.4917 17.2377 18.5531 17.2267 18.6124C17.2158 18.6718 17.1881 18.7266 17.1473 18.7699Z" fill="black"/>
<path d="M2.2827 11.0897H10.7432C10.8218 11.0897 10.8972 11.0575 10.9528 11.0002C11.0084 10.9429 11.0396 10.8651 11.0396 10.7841V3.61129C11.0397 3.53808 11.0143 3.46726 10.9681 3.41173L8.21054 0.106557L8.20419 0.100007C8.19996 0.0952036 8.19572 0.0904 8.19107 0.0860333L8.18218 0.0773C8.17773 0.0731114 8.17306 0.0691755 8.1682 0.0655098L8.15847 0.0576497L8.1428 0.0471695L8.13306 0.0410561L8.11528 0.0314493L8.10639 0.026646L8.08564 0.0183492L8.07802 0.0152925L8.05516 0.00917908H8.04796C8.03985 0.00741088 8.03165 0.00609892 8.02341 0.00524902H8.01705C8.00689 0.00524902 7.99631 0.00524902 7.98572 0.00524902H2.2827C2.2041 0.00524902 2.12872 0.0374534 2.07313 0.0947778C2.01755 0.152102 1.98633 0.229851 1.98633 0.31092V10.7841C1.98633 10.8651 2.01755 10.9429 2.07313 11.0002C2.12872 11.0575 2.2041 11.0897 2.2827 11.0897ZM8.28209 1.12968L10.2538 3.49164H8.28209V1.12968ZM2.57907 0.609603H7.68935V3.79731C7.68935 3.87838 7.72058 3.95613 7.77616 4.01345C7.83174 4.07078 7.90712 4.10298 7.98572 4.10298H10.4469V10.4784H2.57907V0.609603Z" fill="black"/>
<path d="M8.85944 6.43784C8.84364 6.40748 8.82399 6.37944 8.80101 6.35443C8.73708 6.28849 8.7011 6.27714 8.46908 6.2457C8.35392 6.23042 8.2595 6.21688 8.25739 6.21601C8.23876 6.17234 8.15789 5.9623 8.15535 5.954C8.15281 5.94571 8.20235 5.86973 8.27686 5.77235C8.38525 5.62868 8.40388 5.5955 8.42251 5.54004C8.44532 5.46828 8.44094 5.39026 8.41023 5.3217C8.38356 5.25795 8.00759 4.87018 7.94662 4.84136C7.88015 4.80957 7.80442 4.8052 7.73493 4.82914C7.68116 4.84617 7.65025 4.86713 7.51053 4.97935C7.4212 5.05009 7.34541 5.10817 7.34118 5.10817C7.31086 5.0976 7.28117 5.08521 7.25226 5.07105C7.20654 5.05097 7.14727 5.02739 7.12144 5.01822C7.09561 5.00905 7.07232 4.99638 7.07232 4.9907C7.07232 4.98503 7.06005 4.88634 7.04523 4.77237C7.01644 4.54181 7.00289 4.50556 6.94065 4.43962C6.91603 4.41576 6.88857 4.39522 6.85894 4.37849C6.81914 4.3584 6.80686 4.35753 6.51557 4.35535C6.27382 4.35535 6.20692 4.35535 6.17686 4.36714C6.13461 4.38476 6.09652 4.41154 6.06519 4.44567C6.03385 4.4798 6.00999 4.52048 5.99523 4.56495C5.98676 4.59857 5.9385 4.96188 5.9385 4.99245C5.9385 4.99725 5.91648 5.00861 5.89023 5.01822C5.86398 5.02782 5.80555 5.05097 5.75856 5.07105C5.72965 5.08521 5.69996 5.0976 5.66964 5.10817C5.66668 5.10817 5.59089 5.05009 5.50029 4.97935C5.36226 4.86713 5.33093 4.84617 5.27589 4.82914C5.20704 4.80578 5.13217 4.81015 5.06632 4.84136C5.00492 4.868 4.62938 5.25576 4.60059 5.3217C4.56967 5.39021 4.56528 5.46831 4.58831 5.54004C4.60525 5.5955 4.62557 5.62737 4.73396 5.77147C4.80255 5.86318 4.86097 5.94178 4.86097 5.94614C4.85066 5.97759 4.8385 6.00836 4.82456 6.03828C4.80509 6.08501 4.78222 6.14614 4.77376 6.17278C4.76529 6.19941 4.75259 6.22343 4.74666 6.22343C4.74073 6.22343 4.64589 6.23609 4.53497 6.25138C4.31226 6.28107 4.27712 6.29242 4.21235 6.35967C4.18909 6.38491 4.16904 6.41308 4.15265 6.44351C4.13317 6.48718 4.13232 6.49417 4.13232 6.80726C4.13232 7.12035 4.13232 7.12865 4.15392 7.17276C4.16948 7.20313 4.18915 7.23107 4.21235 7.25572C4.27543 7.32079 4.31226 7.33345 4.53497 7.36314C4.64547 7.37843 4.73989 7.39065 4.74666 7.39065C4.75343 7.39065 4.76444 7.4138 4.77376 7.44044C4.78307 7.46707 4.80509 7.52777 4.82456 7.57624C4.83846 7.60603 4.85062 7.63665 4.86097 7.66794C4.86097 7.67187 4.80424 7.7496 4.73396 7.84261C4.59382 8.0282 4.57646 8.06662 4.5773 8.17186C4.5773 8.28627 4.59212 8.30767 4.82033 8.54303C5.04853 8.7784 5.06971 8.7915 5.17936 8.79237C5.28225 8.79237 5.31823 8.77534 5.49902 8.6308C5.58835 8.56006 5.66329 8.4998 5.66837 8.4998C5.69866 8.51062 5.72834 8.52316 5.75728 8.53736C5.80259 8.55744 5.86229 8.58102 5.88896 8.58976C5.91563 8.59849 5.93722 8.61203 5.93722 8.6177C5.93722 8.62338 5.9495 8.72207 5.96432 8.83604C5.99311 9.0666 6.00666 9.10285 6.0689 9.16922C6.09363 9.19295 6.12107 9.21348 6.15061 9.23035C6.19295 9.25044 6.19973 9.25131 6.50287 9.25131C6.80602 9.25131 6.81448 9.25131 6.85555 9.23035C6.91487 9.19762 6.96359 9.14767 6.99569 9.08669C7.01051 9.05612 7.02321 8.98626 7.04184 8.84172C7.05666 8.72993 7.06809 8.63124 7.06894 8.62338C7.06979 8.61552 7.0846 8.60242 7.11805 8.59063C7.14388 8.58233 7.20273 8.55832 7.24888 8.53823C7.27782 8.52403 7.3075 8.51149 7.33779 8.50068C7.3416 8.50068 7.41654 8.55919 7.50714 8.63168C7.68793 8.77622 7.72392 8.79412 7.82596 8.79325C7.93646 8.79325 7.95763 8.77709 8.18118 8.5474C8.41404 8.30854 8.42886 8.2854 8.42886 8.16313C8.42886 8.05964 8.41489 8.03213 8.2722 7.84348C8.207 7.75615 8.15154 7.68192 8.14985 7.67624C8.15601 7.64262 8.16655 7.61001 8.18118 7.5793C8.2015 7.5317 8.22352 7.47057 8.23325 7.44262C8.24299 7.41467 8.25273 7.39284 8.25739 7.39284C8.28321 7.39284 8.63844 7.34218 8.67019 7.33432C8.7299 7.31431 8.7825 7.27647 8.82134 7.22559C8.87765 7.14874 8.87976 7.13258 8.8768 6.79416C8.88103 6.49155 8.87976 6.48194 8.85944 6.43784ZM8.68162 6.80333V7.05966L8.65833 7.08935C8.64725 7.10294 8.63374 7.1142 8.61853 7.12254C8.61007 7.12559 8.50041 7.14088 8.37636 7.15704C8.25231 7.17319 8.1418 7.19066 8.13037 7.19546C8.09989 7.20682 8.09057 7.2221 8.05543 7.33039C8.0368 7.38498 7.9987 7.47843 7.97075 7.53869C7.92037 7.64785 7.91233 7.68716 7.93053 7.7234C7.93603 7.73519 7.99023 7.81073 8.05035 7.88802C8.23283 8.13212 8.22648 8.12164 8.22648 8.15963C8.22648 8.19762 8.21378 8.20767 8.04442 8.38234C7.87507 8.55701 7.85898 8.57185 7.8285 8.57185C7.79039 8.57185 7.78192 8.56574 7.5698 8.39456C7.48978 8.33081 7.41569 8.2723 7.40468 8.26662C7.36954 8.24741 7.33144 8.25614 7.22559 8.30767C7.16716 8.33649 7.07614 8.37535 7.02321 8.395C6.91864 8.43255 6.90382 8.43867 6.89154 8.4736C6.88815 8.48496 6.87122 8.5998 6.85555 8.72687C6.83989 8.85394 6.82507 8.96704 6.8221 8.97577C6.81407 8.99161 6.80297 9.00558 6.7895 9.01682L6.76114 9.04084H6.26238L6.23359 9.01682C6.22028 9.00553 6.20933 8.99157 6.20142 8.97577C6.19845 8.96704 6.18364 8.85525 6.16797 8.72687C6.1523 8.59849 6.13537 8.48496 6.13156 8.4736C6.1197 8.43998 6.10489 8.43255 5.99989 8.395C5.94696 8.37579 5.85636 8.33692 5.79793 8.30767C5.69124 8.25483 5.65398 8.24741 5.61799 8.26749C5.60656 8.27317 5.53331 8.32863 5.45837 8.38976C5.22636 8.57666 5.23313 8.57185 5.19587 8.57185C5.15861 8.57185 5.1493 8.55919 4.97868 8.38234C4.80805 8.20549 4.79535 8.19107 4.79535 8.1592C4.79535 8.12033 4.80085 8.1116 4.9647 7.89239C5.02694 7.8103 5.08325 7.73388 5.08876 7.72209C5.10739 7.68585 5.09934 7.64654 5.04896 7.53738C5.02144 7.47712 4.98333 7.38367 4.96428 7.32908C4.92787 7.22079 4.92194 7.20551 4.88807 7.19328C4.87706 7.18935 4.76571 7.17232 4.64251 7.15573C4.5193 7.13913 4.40964 7.12428 4.40118 7.12123C4.3859 7.11301 4.37237 7.10172 4.36138 7.08804L4.33809 7.05835V6.54831L4.36138 6.51862C4.3725 6.50496 4.386 6.49356 4.40118 6.485C4.40964 6.48238 4.51803 6.46666 4.64166 6.4505C4.76529 6.43434 4.87622 6.41819 4.88807 6.41338C4.92067 6.40072 4.92787 6.38631 4.96428 6.27758C4.98291 6.22299 5.02101 6.12911 5.04896 6.06885C5.09934 5.95968 5.10739 5.92082 5.08876 5.88414C5.08325 5.87278 5.02694 5.7968 4.9647 5.71383C4.79874 5.4955 4.79535 5.48633 4.79535 5.44703C4.79535 5.41559 4.80932 5.39943 4.97868 5.22432C5.14803 5.04922 5.16454 5.03481 5.19587 5.03481C5.2272 5.03481 5.22636 5.03001 5.45837 5.21646C5.53543 5.2776 5.60656 5.33349 5.61799 5.33917C5.65483 5.36013 5.69124 5.3514 5.80724 5.2955C5.87048 5.26462 5.93521 5.23708 6.00116 5.21297C6.09472 5.1824 6.1197 5.16712 6.13071 5.13655C6.13537 5.12302 6.1523 5.00861 6.16797 4.8811C6.18364 4.75359 6.19845 4.64093 6.20142 4.63263C6.20935 4.61673 6.22029 4.60263 6.23359 4.59115L6.26238 4.56757H6.75986L6.78823 4.59115C6.80163 4.60264 6.81271 4.61674 6.82083 4.63263C6.8238 4.64093 6.83862 4.75316 6.85428 4.88023C6.86995 5.0073 6.88561 5.12214 6.89027 5.13481C6.90255 5.16799 6.91652 5.17585 7.02194 5.21297C7.07486 5.23218 7.16589 5.27148 7.22432 5.30031C7.33102 5.35271 7.36827 5.36057 7.40426 5.34048C7.41527 5.3348 7.48894 5.27891 7.56388 5.21777C7.79547 5.03132 7.78912 5.03612 7.82638 5.03612C7.86363 5.03612 7.87253 5.04878 8.04315 5.22563C8.21378 5.40249 8.2269 5.4169 8.2269 5.44834C8.2269 5.48764 8.2214 5.49637 8.05755 5.71514C7.99531 5.79767 7.93858 5.87409 7.93307 5.88545C7.91487 5.92213 7.92291 5.96099 7.97329 6.07016C8.00081 6.13042 8.03892 6.2243 8.05797 6.27889C8.09396 6.38675 8.10031 6.40203 8.13418 6.41469C8.14519 6.41862 8.25654 6.43565 8.37974 6.45181C8.50295 6.46797 8.61261 6.48369 8.62108 6.48631C8.63618 6.49498 8.64965 6.50637 8.66087 6.51993L8.68416 6.54962L8.68162 6.80333Z" fill="black"/>
<path d="M6.76335 5.81121C6.62423 5.78058 6.48109 5.77438 6.33996 5.79287C6.2498 5.80884 6.16237 5.83826 6.08043 5.8802C5.95021 5.94469 5.83506 6.03748 5.7429 6.1522C5.65074 6.26693 5.58376 6.40087 5.54654 6.54482C5.52526 6.62749 5.51725 6.71319 5.52283 6.79853C5.51355 6.94063 5.53964 7.08283 5.59861 7.21162C5.64796 7.33016 5.71996 7.43724 5.81031 7.52646C5.93771 7.66052 6.09909 7.75494 6.27603 7.79894C6.4308 7.83089 6.5901 7.83163 6.74515 7.80112C6.91948 7.75638 7.07905 7.66442 7.20738 7.53476C7.3357 7.40509 7.42812 7.24243 7.47506 7.06359C7.49666 6.98018 7.4992 6.95354 7.4992 6.80158C7.4992 6.64962 7.49666 6.62473 7.47506 6.5422C7.42913 6.36662 7.33917 6.20662 7.21423 6.0783C7.08929 5.94997 6.93378 5.85785 6.76335 5.81121ZM7.26803 7.01643C7.23191 7.15216 7.16218 7.27587 7.06568 7.3754C6.96918 7.47492 6.84923 7.54685 6.71762 7.5841C6.58182 7.61903 6.43978 7.61903 6.30398 7.5841C6.17237 7.54685 6.05243 7.47492 5.95593 7.3754C5.85943 7.27587 5.78969 7.15216 5.75357 7.01643C5.72027 6.87629 5.72027 6.72993 5.75357 6.5898C5.79525 6.4375 5.87852 6.30078 5.99345 6.19594C6.10838 6.09111 6.25013 6.02258 6.40178 5.99854C6.5078 5.98729 6.61491 5.99572 6.71805 6.02343C6.84971 6.06057 6.96972 6.13245 7.06623 6.232C7.16275 6.33154 7.23245 6.45531 7.26845 6.59111C7.30175 6.73124 7.30175 6.8776 7.26845 7.01774L7.26803 7.01643Z" fill="black"/>
</g>
<defs>
<clipPath id="clip0_36_64">
<rect width="21" height="21" fill="white"/>
</clipPath>
</defs>
</svg>
