<svg width="21" height="20" viewBox="0 0 21 20" fill="none" xmlns="http://www.w3.org/2000/svg">
<path d="M10.3072 0.0383721C10.1637 0.0980025 0.287109 7.61143 0.13125 7.77329C0.0205078 7.89681 0 7.94792 0 8.13107C0 8.25033 0.0287109 8.40366 0.0615234 8.47181C0.188672 8.72311 0.607031 8.82534 0.849023 8.66348C0.910547 8.62089 3.06797 6.98531 5.63965 5.02603C8.21133 3.071 10.3605 1.44395 10.418 1.40987C10.5205 1.35024 10.6189 1.42265 15.2783 4.9664C17.8951 6.9555 20.0895 8.62089 20.1551 8.66348C20.2986 8.76145 20.5693 8.76571 20.7416 8.66774C20.9139 8.5783 21 8.39941 21 8.13107C21 7.94792 20.9795 7.89681 20.8687 7.77329C20.6965 7.59014 10.8322 0.0980025 10.6846 0.0383721C10.5533 -0.0127397 10.4303 -0.0127397 10.3072 0.0383721Z" fill="black"/>
<path d="M2.58809 8.80403C2.51016 8.84662 2.41172 8.94884 2.3707 9.02977C2.30098 9.16607 2.29688 9.40885 2.29688 14.1154C2.29688 18.9369 2.30098 19.0605 2.37891 19.1925C2.55937 19.4992 2.3502 19.4821 5.59863 19.4821C8.84297 19.4821 8.64609 19.4992 8.80605 19.1925C8.87578 19.069 8.87988 18.8219 8.90039 16.0108L8.9209 12.9654L9.03984 12.7098C9.1957 12.3819 9.50742 12.0581 9.82324 11.8963C10.0488 11.7855 10.1062 11.7728 10.5 11.7728C10.8937 11.7728 10.9512 11.7855 11.1768 11.8963C11.4926 12.0581 11.8043 12.3819 11.9602 12.7098L12.0791 12.9654L12.0996 16.0108C12.1201 18.8219 12.1242 19.069 12.1939 19.1925C12.3539 19.4992 12.157 19.4821 15.4014 19.4821C18.6498 19.4821 18.4406 19.4992 18.6211 19.1925C18.699 19.0605 18.7031 18.9369 18.7031 14.1154C18.7031 9.40885 18.699 9.16607 18.6293 9.02977C18.5432 8.8594 18.3299 8.72736 18.1494 8.72736C17.9854 8.72736 17.7639 8.84662 17.6613 8.9957C17.5752 9.11496 17.5752 9.14051 17.5629 13.715L17.5547 18.3108H15.4014H13.248V15.7339C13.248 12.8206 13.2439 12.7652 12.9527 12.1348C12.8174 11.8409 12.7189 11.7046 12.4318 11.4065C12.1447 11.1083 12.0135 11.0061 11.7305 10.8655C11.3449 10.6739 10.8814 10.5589 10.5 10.5589C10.1186 10.5589 9.65508 10.6739 9.26953 10.8655C8.98652 11.0061 8.85527 11.1083 8.56816 11.4065C8.28105 11.7046 8.18262 11.8409 8.04727 12.1348C7.75195 12.7822 7.75195 12.7865 7.75195 15.7084V18.3108H5.59863H3.44531L3.43711 13.715C3.4248 9.14051 3.4248 9.11496 3.33867 8.9957C3.1623 8.7444 2.84238 8.66347 2.58809 8.80403Z" fill="black"/>
</svg>
