<svg width="24" height="24" viewBox="0 0 24 24" fill="none" xmlns="http://www.w3.org/2000/svg">
<g clip-path="url(#clip0_36_82)">
<path d="M13.4062 0.0937246C17.7187 0.820287 20.8452 4.4531 20.8687 8.7656C20.8687 9.49685 20.8218 9.9281 20.6483 10.664C20.3952 11.7422 19.9827 12.7453 19.364 13.7906C18.989 14.4234 13.0968 23.3437 12.8905 23.5828C12.4124 24.15 11.5874 24.15 11.1093 23.5828C10.903 23.3437 5.01553 14.4328 4.63584 13.7953C3.87178 12.5015 3.38897 11.1797 3.1874 9.82029C3.10772 9.30935 3.12178 8.18904 3.21084 7.59841C3.50147 5.6531 4.33115 3.99841 5.70928 2.61091C7.05928 1.24685 8.6999 0.4031 10.6265 0.0937246C11.3765 -0.0281504 12.6843 -0.0281504 13.4062 0.0937246ZM10.964 1.1531C9.20147 1.39685 7.63584 2.19372 6.4124 3.45935C5.24522 4.67341 4.56084 6.0656 4.28428 7.78122C4.19053 8.37654 4.21397 9.52966 4.33584 10.0781C4.5749 11.1703 4.98272 12.2015 5.58272 13.2187C6.12647 14.1328 11.9343 22.8984 11.9999 22.8984C12.0655 22.8984 17.8733 14.1328 18.4171 13.2187C19.0171 12.2015 19.4249 11.1703 19.664 10.0781C19.7858 9.52966 19.8093 8.37654 19.7155 7.78122C19.2937 5.14216 17.7608 3.04216 15.3843 1.85622C14.0952 1.20935 12.4312 0.94685 10.964 1.1531Z" fill="black"/>
<path d="M12.9325 4.24214C13.5747 4.38745 14.0997 4.59839 14.5309 4.88901C15.8106 5.75151 16.5465 6.9562 16.6825 8.41401C16.9215 11.0296 15.1075 13.2421 12.4731 13.5468C10.8044 13.7437 9.06061 12.9328 8.09499 11.5124C7.09186 10.0359 7.02624 8.01557 7.93561 6.48276C8.55436 5.43276 9.5153 4.68745 10.7106 4.3312C11.0762 4.22339 11.2356 4.20464 11.8825 4.19057C12.4169 4.17651 12.7169 4.19526 12.9325 4.24214ZM10.945 5.40932C9.95592 5.73276 9.2153 6.37026 8.7653 7.28901C8.46061 7.92182 8.37155 8.33901 8.39967 9.04214C8.41842 9.46401 8.45124 9.67026 8.54967 9.96089C9.0653 11.489 10.42 12.4734 11.9997 12.4734C13.5794 12.4734 14.934 11.489 15.4497 9.96089C15.6184 9.45464 15.6559 8.66714 15.5434 8.12807C15.4403 7.65464 15.07 6.89995 14.7794 6.55776C14.2309 5.92026 13.5419 5.50307 12.7262 5.31557C12.2762 5.21245 11.409 5.25464 10.945 5.40932Z" fill="black"/>
</g>
<defs>
<clipPath id="clip0_36_82">
<rect width="24" height="24" fill="white" transform="matrix(-1 0 0 1 24 0)"/>
</clipPath>
</defs>
</svg>
