<svg width="20" height="21" viewBox="0 0 20 21" fill="none" xmlns="http://www.w3.org/2000/svg">
<path d="M13.0122 0.126699C12.6173 0.335131 12.457 0.592607 12.3514 1.18112L12.2888 1.54894L12.019 1.65929L11.7531 1.76555L11.4677 1.56938C11.0805 1.29964 10.9554 1.2506 10.6348 1.2506C10.2242 1.25469 10.0443 1.35686 9.57118 1.85546C9.1215 2.32546 9.01201 2.51346 8.98464 2.86084C8.95335 3.20415 9.02374 3.45345 9.26227 3.82536L9.47342 4.14822L9.39913 4.35257C9.35611 4.46292 9.30528 4.58552 9.28182 4.62639C9.24271 4.70813 9.23489 4.70813 8.7813 4.80622C8.44111 4.87569 8.20258 5.01056 8.03835 5.23126C7.80374 5.54186 7.78027 5.63995 7.78027 6.37968C7.78027 7.13984 7.81547 7.2788 8.08918 7.59758C8.27297 7.80601 8.4372 7.88775 8.89079 7.98992L9.25836 8.07575L9.37175 8.34957L9.48124 8.62339L9.28573 8.91765C9.03547 9.29774 8.95726 9.54295 8.98464 9.87808C9.01201 10.2582 9.12932 10.4748 9.55554 10.9202C9.98176 11.3657 10.189 11.4883 10.5527 11.5169C10.8733 11.5455 11.1079 11.4638 11.4716 11.2022L11.7531 10.9979L11.9955 11.1042C12.1285 11.1614 12.2497 11.2227 12.2654 11.239C12.281 11.2513 12.324 11.4188 12.3592 11.6109C12.4609 12.1831 12.6681 12.4937 13.0748 12.6858C13.2977 12.792 14.1462 12.8329 14.4981 12.7553C14.7797 12.694 15.0573 12.5019 15.2137 12.2567C15.331 12.0728 15.3701 11.9542 15.464 11.4475L15.507 11.2227L15.765 11.1123L16.027 10.9979L16.3438 11.2186C16.7035 11.4761 16.9342 11.5496 17.2666 11.5169C17.599 11.4883 17.7788 11.3739 18.2285 10.9039C18.7056 10.4094 18.8033 10.2214 18.8072 9.79225C18.8072 9.45713 18.7603 9.32634 18.5022 8.92174L18.3106 8.61931L18.4201 8.3414L18.5335 8.06349L18.8776 7.99401C19.4368 7.88775 19.687 7.72019 19.8787 7.3115C19.9999 7.06219 19.9999 7.05811 19.9999 6.38377C19.9999 5.75847 19.992 5.68899 19.906 5.50099C19.8044 5.26804 19.5267 4.98195 19.3156 4.89204C19.2413 4.85935 19.0653 4.8103 18.9324 4.78578C18.7994 4.76126 18.6547 4.73674 18.6078 4.72448C18.5492 4.71222 18.4944 4.62639 18.4201 4.42613L18.3106 4.14414L18.5257 3.81718C18.8463 3.32267 18.9011 2.92215 18.7056 2.46033C18.6039 2.21511 17.8844 1.46312 17.6498 1.35686C17.2079 1.15251 16.8286 1.20973 16.3516 1.54077L16.0309 1.76555L15.765 1.6552C15.5774 1.57755 15.4952 1.52034 15.4835 1.45903C15.4718 1.40999 15.4483 1.25877 15.4249 1.11982C15.3662 0.772431 15.2919 0.604868 15.1042 0.384174C14.8109 0.0531341 14.721 0.0286126 13.9389 0.012265L13.2547 4.21617e-06L13.0122 0.126699ZM14.3026 1.12799C14.3339 1.16069 14.3925 1.36503 14.4277 1.58573C14.549 2.32955 14.5998 2.4072 15.112 2.58293C15.2528 2.63198 15.4913 2.73824 15.6399 2.81589C16.0935 3.05293 16.1913 3.02841 16.8638 2.5298L17.1493 2.31728L17.466 2.65241L17.7867 2.98345L17.5833 3.2818C17.1102 3.97657 17.0828 4.09509 17.2979 4.53239C17.3683 4.67543 17.4777 4.95335 17.5442 5.14543C17.6068 5.3416 17.6889 5.53369 17.7202 5.57047C17.8062 5.67264 18.0447 5.75029 18.4866 5.83203C18.6977 5.86881 18.8972 5.92603 18.9285 5.95873C18.9988 6.03638 19.0067 6.69846 18.9324 6.80063C18.9011 6.84967 18.7525 6.89872 18.471 6.95185C17.7476 7.08671 17.7241 7.10306 17.5559 7.59758C17.4934 7.76923 17.3995 8.01444 17.337 8.13705C17.1884 8.45174 17.1376 8.66835 17.1806 8.81548C17.2001 8.88496 17.3174 9.09339 17.4465 9.28548C17.8218 9.83721 17.8179 9.77182 17.5129 10.0988C17.3683 10.2541 17.2197 10.393 17.1845 10.4053C17.1376 10.4216 16.9694 10.3236 16.6918 10.1192C16.1795 9.74321 16.0779 9.72686 15.6204 9.95982C15.46 10.0416 15.2059 10.1519 15.0534 10.205C14.5998 10.3685 14.549 10.4543 14.4277 11.2022C14.3886 11.4515 14.3417 11.6068 14.3026 11.6395C14.2048 11.7172 13.5323 11.709 13.4736 11.6355C13.4463 11.6028 13.3915 11.378 13.3485 11.1328C13.2273 10.4216 13.1999 10.3808 12.6798 10.1887C12.4921 10.1192 12.2341 10.0048 12.105 9.93529C11.9486 9.85356 11.8118 9.81269 11.6945 9.81269C11.5224 9.81269 11.4051 9.88216 10.8342 10.3113C10.7521 10.3726 10.6621 10.4257 10.6387 10.4257C10.5839 10.4257 10.0287 9.84947 10.0287 9.78817C10.0287 9.76364 10.0795 9.66965 10.1382 9.58382C10.5487 8.98713 10.6152 8.86452 10.6152 8.6847C10.6152 8.56209 10.5761 8.41905 10.494 8.25557C10.4314 8.11662 10.3219 7.84688 10.2555 7.6548C10.1303 7.2788 10.0052 7.09898 9.84099 7.05402C9.78624 7.04176 9.55945 6.99272 9.33656 6.95185C9.10977 6.91098 8.90252 6.85376 8.87124 6.82515C8.80085 6.76385 8.79303 6.0609 8.86733 5.95873C8.89861 5.91786 9.0472 5.86881 9.28573 5.82794C10.0013 5.70125 10.0834 5.64403 10.2359 5.16995C10.2907 5.01465 10.3962 4.74083 10.4744 4.56509C10.6973 4.05422 10.6856 3.98883 10.2203 3.31041C10.1147 3.1551 10.0287 3.00797 10.0287 2.98345C10.0287 2.93032 10.4862 2.42354 10.5839 2.37041C10.6348 2.34181 10.7403 2.39494 11.0297 2.60337C11.5341 2.96302 11.628 3.00389 11.8391 2.94258C11.9291 2.91806 12.1168 2.83632 12.2575 2.76276C12.3983 2.68919 12.629 2.59111 12.7698 2.54207C13.0474 2.44807 13.1804 2.34589 13.239 2.18242C13.2586 2.12929 13.3094 1.8759 13.3524 1.6266C13.4072 1.31599 13.4541 1.15251 13.4971 1.11573C13.5948 1.04217 14.2283 1.05034 14.3026 1.12799Z" fill="#2A2A2A"/>
<path d="M13.2763 3.91114C12.459 4.13592 11.7786 4.8307 11.5323 5.7053C11.4854 5.87695 11.4619 6.08538 11.4619 6.40007C11.4658 6.79241 11.4815 6.89459 11.5792 7.19702C11.8412 7.97762 12.373 8.53344 13.1199 8.80726C13.4092 8.90944 13.507 8.92578 13.8824 8.92987C14.6058 8.92987 15.118 8.70918 15.6264 8.17788C16.1112 7.6711 16.3263 7.11528 16.3263 6.37555C16.3263 5.65217 16.1034 5.08817 15.6224 4.58139C15.1297 4.07053 14.594 3.84166 13.8863 3.84984C13.6712 3.84984 13.3936 3.87844 13.2763 3.91114ZM14.5041 5.09226C14.7661 5.23121 15.0203 5.50504 15.1532 5.78703C15.2353 5.95868 15.251 6.0486 15.251 6.37964C15.251 6.71068 15.2353 6.80059 15.1493 6.99267C14.9303 7.47493 14.4455 7.81006 13.9528 7.82232C13.6126 7.83049 13.3897 7.76101 13.1238 7.56893C12.3495 7.01311 12.3104 5.89329 13.0417 5.24756C13.1081 5.19034 13.2645 5.10043 13.3858 5.04321C13.5735 4.96148 13.6595 4.94922 13.9449 4.96148C14.2226 4.96965 14.3203 4.99417 14.5041 5.09226Z" fill="#2A2A2A"/>
<path d="M6.04919 5.80754C5.88887 5.90971 5.8263 6.06093 5.74419 6.55136C5.68944 6.89057 5.66989 6.95188 5.5956 6.9764C5.55258 6.98866 5.3688 7.06631 5.18893 7.14396L4.86047 7.287L4.48508 7.02135C4.04713 6.70666 3.89854 6.63718 3.60918 6.6004C3.3511 6.56771 2.98354 6.65762 2.74892 6.81292C2.48693 6.98048 1.73616 7.80195 1.62276 8.03491C1.54456 8.19838 1.5211 8.31691 1.51327 8.61525C1.49372 9.06481 1.55629 9.24055 1.92776 9.78411L2.15847 10.1233L2.08808 10.2664C2.04898 10.344 1.97078 10.5361 1.91603 10.6914L1.81437 10.9775L1.35686 11.0633C0.649105 11.1982 0.367565 11.3698 0.132949 11.8235L0 12.081V12.9801C0 13.9936 0.0117308 14.0427 0.340194 14.4146C0.555258 14.6598 0.817247 14.7783 1.35686 14.8846L1.81046 14.9745L1.97078 15.3873C2.06071 15.6161 2.1311 15.8164 2.1311 15.8327C2.1311 15.8491 2.00988 16.0493 1.86129 16.2782C1.54065 16.785 1.50545 16.879 1.50545 17.3081C1.50545 17.8026 1.59539 17.9743 2.18193 18.5955C2.77629 19.2249 2.9679 19.3352 3.44495 19.3352C3.85553 19.3352 3.94546 19.2984 4.43034 18.9633C4.64931 18.808 4.84092 18.6813 4.85656 18.6813C4.88002 18.6813 5.65816 19.0042 5.67771 19.0246C5.68162 19.0287 5.71291 19.2126 5.75201 19.4374C5.7872 19.6622 5.84977 19.9401 5.89278 20.0586C5.98662 20.3283 6.24861 20.6308 6.51842 20.7861L6.72567 20.9087H7.58593C8.44619 20.9087 8.44619 20.9087 8.64561 20.7983C8.95061 20.6308 9.07574 20.5 9.22042 20.2017C9.31427 20.0055 9.37292 19.7971 9.42375 19.4701L9.49805 19.0164L9.77177 18.902C9.92427 18.8407 10.112 18.759 10.1863 18.7222L10.3231 18.6486L10.675 18.9102C11.1247 19.2453 11.3515 19.3352 11.7425 19.3352C12.2079 19.3352 12.4308 19.2085 13.0017 18.6078C13.5804 17.9988 13.682 17.8026 13.682 17.2918C13.682 16.8749 13.6273 16.7278 13.2715 16.1883L13.029 15.8205L13.1463 15.5467C13.2128 15.3914 13.291 15.1993 13.3184 15.1175C13.3692 14.9581 13.3536 14.9622 14.0105 14.856C14.3429 14.8028 14.5462 14.5658 14.5345 14.247C14.5306 14.0549 14.4328 13.9078 14.2412 13.7975L14.0965 13.7157L13.467 13.8302C13.119 13.8915 12.7788 13.9691 12.7123 14.0018C12.5598 14.0795 12.4894 14.198 12.3565 14.6148C12.3017 14.7947 12.1727 15.1175 12.071 15.3301C11.942 15.612 11.8911 15.7674 11.8911 15.89C11.895 16.0739 11.8911 16.0657 12.4112 16.8545C12.5441 17.0547 12.6497 17.255 12.6497 17.2999C12.6497 17.3531 12.4972 17.5452 12.247 17.8149C11.9263 18.15 11.8168 18.244 11.7347 18.244C11.6291 18.244 11.5549 18.195 10.8666 17.6923C10.4639 17.398 10.3544 17.3939 9.85388 17.6514C9.63882 17.7618 9.31427 17.9048 9.13048 17.9661C8.78638 18.0846 8.66125 18.1582 8.58304 18.2849C8.55958 18.3258 8.4892 18.6527 8.42663 19.0083C8.36798 19.3679 8.30151 19.6785 8.28977 19.7071C8.19593 19.8624 7.33176 19.936 7.0424 19.8093C6.88208 19.7398 6.86253 19.6785 6.74522 18.947C6.62009 18.1705 6.60836 18.1582 6.014 17.9498C5.81457 17.8803 5.49002 17.7413 5.29451 17.6351C4.78617 17.3694 4.74316 17.3817 4.09014 17.8599C3.42149 18.3544 3.44495 18.3544 2.94443 17.8312C2.45174 17.3163 2.45174 17.3245 2.86623 16.7033C3.38629 15.939 3.3902 15.9145 3.12822 15.3668C3.03046 15.1666 2.89751 14.8314 2.83104 14.623C2.63161 14.0018 2.61988 13.9936 1.89648 13.8628C1.15353 13.7239 1.11834 13.7116 1.05186 13.5522C0.930644 13.2498 0.997119 12.3466 1.14962 12.2485C1.17308 12.2322 1.47026 12.1668 1.81437 12.1055C2.15456 12.0401 2.47911 11.9543 2.53386 11.9175C2.64725 11.8439 2.70982 11.7131 2.83495 11.3044C2.88578 11.1451 3.01091 10.8344 3.11649 10.6097C3.35892 10.0988 3.35892 9.96802 3.10476 9.59202C2.65507 8.93403 2.5495 8.75012 2.5495 8.64386C2.5495 8.55803 2.63943 8.4436 2.96008 8.10847C3.21424 7.84691 3.40194 7.68752 3.45277 7.68752C3.49578 7.68752 3.66001 7.78152 3.82033 7.89595C4.80963 8.61116 4.75098 8.59482 5.31015 8.30873C5.53303 8.1943 5.85759 8.05126 6.02573 7.98995C6.60836 7.78561 6.624 7.76926 6.76477 6.92735C6.87817 6.25301 6.88208 6.17127 6.80387 6.01188C6.6631 5.72989 6.32291 5.63589 6.04919 5.80754Z" fill="#2A2A2A"/>
<path d="M7.04542 9.44487C5.91144 9.64513 4.9456 10.4216 4.46855 11.5169C4.28085 11.9542 4.19092 12.4242 4.19092 12.98C4.19092 13.7525 4.35906 14.3451 4.75009 14.9581C5.46958 16.0779 6.70522 16.6746 7.98388 16.5152C9.62619 16.3109 10.8853 14.9336 10.9948 13.2212C11.0143 12.9024 11.0065 12.8288 10.944 12.7185C10.6546 12.2035 9.95075 12.4242 9.95075 13.0291C9.95075 13.5032 9.71613 14.1448 9.39158 14.5617C9.18042 14.8273 8.72683 15.1584 8.39837 15.2892C8.00734 15.4404 7.58894 15.4772 7.18619 15.3954C6.66221 15.2892 6.31811 15.0971 5.93881 14.7006C5.55951 14.3042 5.37573 13.9446 5.27406 13.3969C5.19586 12.976 5.23105 12.5387 5.37573 12.13C5.50086 11.7867 5.81759 11.3126 6.07176 11.0919C6.47061 10.7527 7.08452 10.5075 7.53811 10.5075C8.10901 10.5075 8.32407 9.8086 7.85484 9.48165C7.73362 9.39991 7.40125 9.38356 7.04542 9.44487Z" fill="#2A2A2A"/>
</svg>
