<svg width="22" height="20" viewBox="0 0 22 20" fill="none" xmlns="http://www.w3.org/2000/svg">
<path d="M17.1059 0.770205C16.9739 0.897976 16.9739 0.949085 17.1059 1.38777C17.1655 1.58795 17.2081 1.76257 17.1996 1.78386C17.1954 1.8009 17.0378 1.86904 16.8504 1.93293C15.5386 2.37587 14.4099 3.65785 13.9755 5.19964L13.9031 5.45518L13.7114 5.46796L13.5198 5.48074L13.49 5.05057C13.3835 3.48323 12.5232 2.20125 11.1475 1.55387C10.5257 1.26426 10.2275 1.20463 9.4183 1.20463C8.5963 1.20463 8.29816 1.26426 7.65504 1.57517C7.18655 1.8009 6.93526 1.97978 6.55194 2.35458C5.81938 3.07862 5.39348 4.04543 5.36366 5.05057L5.35089 5.45518L3.73244 5.47648L2.11399 5.49777L1.84567 5.62128C1.50069 5.77887 1.1557 6.14515 1.03219 6.47736L0.942749 6.71587L0.951267 12.5593L0.964044 18.4028L1.06626 18.637C1.36866 19.3185 1.89678 19.7784 2.56545 19.936C2.80396 19.9914 3.74096 19.9999 9.82291 19.9999C17.502 19.9999 17.0846 20.0127 17.5957 19.7401C18.0727 19.4846 18.5029 18.9394 18.6434 18.407C18.686 18.2494 18.7031 17.8704 18.7031 17.0143V15.8431L18.8734 15.7451C19.0949 15.6216 19.3206 15.349 19.4016 15.1105C19.4995 14.8294 19.4995 13.1172 19.4016 12.8361C19.3206 12.5934 19.0864 12.3123 18.8734 12.2058L18.7073 12.1206L18.6946 10.8344L18.6818 9.54389L18.5242 9.21168C18.2516 8.64522 17.7107 8.16821 17.1911 8.04044C17.0974 8.01488 16.9696 7.98507 16.9057 7.97229L16.7865 7.94674V7.06085C16.7865 6.54976 16.7652 6.10682 16.7396 6.00886C16.6715 5.76183 16.416 5.53184 16.1647 5.49351L15.9645 5.4637L16.2158 5.32315C16.3521 5.24649 16.6374 5.12723 16.8504 5.05483C17.238 4.92706 17.9577 4.80354 18.0685 4.84613C18.1068 4.86317 18.1792 5.07612 18.2559 5.39555C18.4049 6.0046 18.456 6.08126 18.7158 6.06423L18.8947 6.05145L20.1384 4.36912C21.2117 2.92103 21.382 2.66549 21.3863 2.53772C21.3863 2.3631 21.3565 2.31199 21.2159 2.23958C20.9263 2.08626 17.3998 0.663727 17.3104 0.663727C17.255 0.663727 17.1613 0.710577 17.1059 0.770205ZM19.2908 2.15866C19.9084 2.41421 20.4408 2.63994 20.4748 2.65697C20.526 2.68678 20.3684 2.92529 19.6997 3.82822C19.2397 4.4543 18.8521 4.95687 18.8436 4.94835C18.8308 4.93983 18.7883 4.79077 18.7457 4.6204C18.6562 4.27116 18.6094 4.22005 18.3496 4.18172C18.1281 4.14765 17.3955 4.21579 17.0207 4.30523C16.1391 4.50967 15.2277 5.05483 14.7208 5.68943C14.6101 5.82998 14.5121 5.94497 14.5079 5.94497C14.4781 5.94497 14.5931 5.45518 14.6825 5.18686C15.1553 3.76859 16.2924 2.66123 17.4892 2.44828C17.9663 2.3631 18.0557 2.22255 17.9194 1.76257L17.8555 1.56665L18.0131 1.63054C18.0983 1.66461 18.6733 1.90312 19.2908 2.15866ZM10.0146 1.8733C10.696 1.99682 11.2412 2.28217 11.7736 2.789C12.1867 3.1851 12.4848 3.65359 12.6637 4.19876C12.7915 4.57355 12.8 4.64596 12.8 5.19964C12.8043 5.87683 12.7276 6.23033 12.4635 6.74994C12.2932 7.09492 11.8843 7.61879 11.6458 7.81045L11.4712 7.94674H9.40552H7.33561L7.046 7.65712C5.70013 6.32403 5.6618 4.25838 6.96082 2.89548C7.76578 2.04366 8.89017 1.66887 10.0146 1.8733ZM5.53829 6.46458C5.6618 6.85641 5.91734 7.35473 6.16011 7.67842L6.34751 7.92544L4.33723 7.93822L2.32695 7.94674L2.0927 7.83174C1.92234 7.7423 1.82864 7.65712 1.73068 7.50379C1.44532 7.0353 1.65827 6.41347 2.17788 6.20478C2.24177 6.17922 2.93173 6.16219 3.86447 6.16219L5.44033 6.15793L5.53829 6.46458ZM13.8179 6.65624C13.8648 7.49953 13.9457 7.69119 14.2396 7.69119C14.4483 7.69119 14.5164 7.61453 14.6357 7.23547C14.7421 6.89901 14.8657 6.64772 15.053 6.36236L15.1893 6.15793H15.6493H16.105V7.03104C16.105 7.69119 16.0923 7.91266 16.0497 7.92544C16.0241 7.93822 15.2106 7.94248 14.2438 7.93822L12.4933 7.92544L12.685 7.6699C12.9193 7.35899 13.1663 6.87771 13.2983 6.46458L13.3963 6.15793H13.5922H13.7924L13.8179 6.65624ZM9.43959 8.5856C16.301 8.60689 16.8632 8.61115 17.0335 8.6793C17.4466 8.8454 17.7448 9.1265 17.9322 9.52259C18.0429 9.75258 18.0429 9.77388 18.0557 10.894L18.0685 12.0354H16.1817C14.0564 12.0354 14.0479 12.0354 13.7029 12.3378C13.6007 12.4315 13.4644 12.6062 13.4048 12.7254C13.2941 12.9469 13.2941 12.9554 13.2941 13.9733C13.2941 14.9912 13.2941 14.9998 13.4048 15.2212C13.4644 15.3405 13.6007 15.5151 13.7029 15.6088C14.0479 15.9112 14.0564 15.9112 16.1817 15.9112H18.0685L18.0557 17.0526L18.0429 18.1941L17.9024 18.4752C17.7363 18.8159 17.4296 19.1055 17.0846 19.2461L16.8504 19.3398H9.82291H2.79544L2.55268 19.2418C2.21195 19.1055 1.91382 18.8201 1.74345 18.4752L1.6029 18.1898L1.59013 13.2663L1.58161 8.34283L1.80308 8.45357L2.02881 8.5643L9.43959 8.5856ZM18.5242 12.7808C18.784 12.9384 18.8308 13.113 18.8308 13.9733C18.8308 14.8337 18.784 15.0083 18.5242 15.1659C18.3922 15.2468 18.2899 15.251 16.4245 15.2638L14.4653 15.2766L14.2779 15.1786C13.9627 15.0168 13.9329 14.9188 13.9329 13.9818C13.9329 13.3345 13.9457 13.1471 14.0011 13.0321C14.1714 12.6786 14.1885 12.6743 16.4458 12.6871C18.2899 12.6956 18.3922 12.6999 18.5242 12.7808Z" fill="#2A2A2A"/>
<path d="M9.16707 2.73362C9.09893 2.8188 9.07763 2.90824 9.07763 3.09138C9.07763 3.32563 9.06911 3.34267 8.95412 3.381C8.76672 3.44489 8.4984 3.70895 8.38766 3.93468C8.311 4.09226 8.29396 4.203 8.29396 4.45854C8.29822 5.03352 8.52395 5.2848 9.28207 5.55738C9.73779 5.72349 9.88686 5.847 9.88686 6.05996C9.88686 6.28569 9.65687 6.49864 9.41836 6.49864C9.27355 6.49864 9.21392 6.47309 9.09467 6.35383C9.00523 6.26439 8.94986 6.16643 8.94986 6.09829C8.94986 5.70219 8.50692 5.5659 8.31526 5.90663C8.26415 6.00033 8.25989 6.0557 8.30674 6.25161C8.3834 6.60086 8.56228 6.8564 8.84338 7.01399C9.07763 7.14602 9.07763 7.14602 9.07763 7.35045C9.07763 7.61878 9.14152 7.75932 9.29484 7.82321C9.38854 7.86154 9.44817 7.86154 9.54187 7.82321C9.6952 7.75932 9.75908 7.61878 9.75908 7.35471C9.75908 7.15028 9.75908 7.15028 10.0019 7.00547C10.5172 6.69882 10.7089 6.04718 10.432 5.50628C10.3426 5.32739 10.0785 5.14 9.76334 5.025C9.38003 4.88445 9.133 4.76094 9.04356 4.66298C8.80931 4.41595 9.06486 3.9432 9.43114 3.9432C9.4865 3.9432 9.59724 3.98579 9.67816 4.04116C9.79316 4.11782 9.83575 4.18596 9.87834 4.3691C9.93796 4.62891 10.053 4.75242 10.2233 4.75242C10.5129 4.75242 10.6237 4.49262 10.5044 4.08375C10.4491 3.88783 10.3852 3.78987 10.2063 3.61525C10.0785 3.49174 9.92945 3.381 9.86982 3.36396C9.7676 3.33841 9.75908 3.32137 9.75908 3.09138C9.75908 2.76769 9.65261 2.62289 9.41836 2.62289C9.29059 2.62289 9.23522 2.64844 9.16707 2.73362Z" fill="#2A2A2A"/>
<path d="M15.0019 13.0193C14.7123 13.0874 14.3844 13.4367 14.3162 13.7476C14.1459 14.5015 14.8188 15.1318 15.5556 14.9188C15.8708 14.8251 16.1221 14.5824 16.2115 14.28C16.2924 14.0117 16.2924 13.935 16.2115 13.6709C16.0667 13.1811 15.5343 12.8958 15.0019 13.0193ZM15.4875 13.7604C15.5471 13.8157 15.5939 13.9137 15.5939 13.9733C15.5939 14.1139 15.4151 14.2928 15.2745 14.2928C15.134 14.2928 14.9551 14.1139 14.9551 13.9733C14.9551 13.8328 15.134 13.6539 15.2745 13.6539C15.3341 13.6539 15.4321 13.7007 15.4875 13.7604Z" fill="#2A2A2A"/>
</svg>
