<?xml version="1.0" encoding="UTF-8"?>
<svg xmlns="http://www.w3.org/2000/svg" xmlns:xlink="http://www.w3.org/1999/xlink" width="25px" height="25px" viewBox="0 0 25 25" version="1.1">
<g id="surface1">
<path style=" stroke:none;fill-rule:nonzero;fill:rgb(0%,0%,0%);fill-opacity:1;" d="M 11.917969 1.980469 C 10.527344 2.359375 9.835938 3.902344 10.472656 5.203125 C 10.582031 5.425781 10.734375 5.632812 10.890625 5.78125 C 11.027344 5.914062 11.132812 6.019531 11.125 6.03125 C 11.113281 6.035156 10.972656 6.113281 10.804688 6.195312 C 9.945312 6.648438 9.296875 7.460938 9.027344 8.421875 C 8.929688 8.757812 8.917969 8.933594 8.917969 9.652344 C 8.910156 10.394531 8.921875 10.503906 9 10.582031 C 9.082031 10.664062 9.28125 10.667969 12.5 10.667969 C 15.714844 10.667969 15.917969 10.664062 16 10.582031 C 16.128906 10.453125 16.128906 9.078125 16 8.53125 C 15.773438 7.558594 15.082031 6.664062 14.195312 6.195312 C 14.027344 6.113281 13.886719 6.035156 13.882812 6.03125 C 13.871094 6.023438 13.984375 5.902344 14.132812 5.75 C 14.984375 4.871094 14.976562 3.441406 14.113281 2.582031 C 13.535156 2.007812 12.691406 1.773438 11.917969 1.980469 Z M 13.15625 2.757812 C 13.449219 2.894531 13.753906 3.203125 13.925781 3.523438 C 14.019531 3.699219 14.039062 3.808594 14.039062 4.175781 C 14.039062 4.570312 14.023438 4.636719 13.890625 4.871094 C 13.683594 5.257812 13.339844 5.546875 12.953125 5.664062 C 12.558594 5.785156 12.441406 5.785156 12.046875 5.664062 C 11.660156 5.546875 11.320312 5.257812 11.109375 4.871094 C 10.976562 4.636719 10.960938 4.570312 10.960938 4.175781 C 10.960938 3.808594 10.980469 3.699219 11.074219 3.523438 C 11.308594 3.082031 11.722656 2.75 12.179688 2.632812 C 12.425781 2.566406 12.875 2.625 13.15625 2.757812 Z M 13.203125 6.570312 C 14.195312 6.824219 15.050781 7.679688 15.304688 8.671875 C 15.351562 8.851562 15.382812 9.175781 15.382812 9.46875 L 15.382812 9.960938 L 14.707031 9.960938 L 14.6875 9.394531 C 14.671875 8.871094 14.664062 8.824219 14.554688 8.734375 C 14.398438 8.609375 14.230469 8.617188 14.085938 8.765625 C 13.96875 8.875 13.964844 8.914062 13.964844 9.421875 L 13.964844 9.960938 L 11.035156 9.960938 L 11.035156 9.421875 C 11.035156 8.914062 11.03125 8.875 10.914062 8.765625 C 10.773438 8.617188 10.601562 8.609375 10.445312 8.734375 C 10.335938 8.824219 10.328125 8.871094 10.3125 9.394531 L 10.292969 9.960938 L 9.621094 9.960938 L 9.621094 9.46875 C 9.621094 9.179688 9.648438 8.851562 9.699219 8.675781 C 9.957031 7.679688 10.738281 6.878906 11.742188 6.585938 C 12.121094 6.472656 12.808594 6.46875 13.203125 6.570312 Z M 13.203125 6.570312 "/>
<path style=" stroke:none;fill-rule:nonzero;fill:rgb(0%,0%,0%);fill-opacity:1;" d="M 8.214844 7.855469 C 6.933594 8.621094 5.777344 9.898438 5.121094 11.253906 C 4.992188 11.523438 4.882812 11.765625 4.882812 11.796875 C 4.882812 11.824219 5.050781 11.800781 5.3125 11.726562 L 5.742188 11.605469 L 5.890625 11.332031 C 6.203125 10.726562 6.621094 10.171875 7.203125 9.59375 C 7.523438 9.273438 7.914062 8.921875 8.066406 8.816406 C 8.316406 8.648438 8.351562 8.609375 8.402344 8.378906 C 8.433594 8.242188 8.507812 8.023438 8.558594 7.894531 C 8.613281 7.769531 8.648438 7.652344 8.632812 7.640625 C 8.617188 7.625 8.433594 7.722656 8.214844 7.855469 Z M 8.214844 7.855469 "/>
<path style=" stroke:none;fill-rule:nonzero;fill:rgb(0%,0%,0%);fill-opacity:1;" d="M 16.429688 7.832031 C 16.46875 7.917969 16.535156 8.140625 16.578125 8.316406 C 16.65625 8.617188 16.675781 8.640625 16.933594 8.816406 C 17.089844 8.921875 17.476562 9.273438 17.796875 9.59375 C 18.390625 10.179688 18.84375 10.78125 19.144531 11.386719 C 19.261719 11.621094 19.3125 11.667969 19.410156 11.667969 C 19.476562 11.667969 19.667969 11.714844 19.828125 11.765625 C 19.996094 11.824219 20.136719 11.859375 20.148438 11.851562 C 20.15625 11.839844 20.023438 11.546875 19.847656 11.199219 C 19.175781 9.863281 18.261719 8.84375 16.996094 8.003906 C 16.410156 7.613281 16.328125 7.585938 16.429688 7.832031 Z M 16.429688 7.832031 "/>
<path style=" stroke:none;fill-rule:nonzero;fill:rgb(0%,0%,0%);fill-opacity:1;" d="M 12.132812 11.84375 C 12.082031 11.855469 11.914062 11.890625 11.769531 11.917969 C 11.621094 11.949219 11.3125 12.058594 11.089844 12.167969 C 10.269531 12.558594 9.585938 13.433594 9.398438 14.332031 C 8.984375 16.324219 10.46875 18.164062 12.5 18.164062 C 14.527344 18.164062 16.015625 16.324219 15.601562 14.332031 C 15.367188 13.21875 14.425781 12.222656 13.335938 11.9375 C 13.023438 11.859375 12.316406 11.800781 12.132812 11.84375 Z M 13.378906 12.695312 C 14.765625 13.296875 15.34375 14.75 14.710938 16.0625 C 14.25 17.027344 13.15625 17.613281 12.148438 17.441406 C 11.058594 17.253906 10.214844 16.402344 10.054688 15.320312 C 9.902344 14.304688 10.480469 13.246094 11.4375 12.78125 C 11.839844 12.582031 12.015625 12.546875 12.574219 12.5625 C 13.011719 12.578125 13.160156 12.597656 13.378906 12.695312 Z M 13.378906 12.695312 "/>
<path style=" stroke:none;fill-rule:nonzero;fill:rgb(0%,0%,0%);fill-opacity:1;" d="M 13.453125 14.066406 C 13.398438 14.097656 13.066406 14.410156 12.714844 14.753906 L 12.074219 15.390625 L 11.792969 15.09375 C 11.558594 14.84375 11.480469 14.792969 11.34375 14.792969 C 11.132812 14.792969 10.988281 14.941406 10.988281 15.144531 C 10.988281 15.277344 11.058594 15.375 11.464844 15.78125 C 12.144531 16.460938 12.0625 16.472656 13.121094 15.414062 C 13.851562 14.6875 13.964844 14.550781 13.964844 14.417969 C 13.964844 14.144531 13.675781 13.945312 13.453125 14.066406 Z M 13.453125 14.066406 "/>
<path style=" stroke:none;fill-rule:nonzero;fill:rgb(0%,0%,0%);fill-opacity:1;" d="M 5.425781 12.332031 C 4.652344 12.539062 4.039062 13.164062 3.832031 13.941406 C 3.628906 14.726562 3.847656 15.570312 4.398438 16.121094 C 4.535156 16.257812 4.640625 16.371094 4.628906 16.382812 C 4.621094 16.386719 4.484375 16.460938 4.320312 16.546875 C 3.714844 16.863281 3.179688 17.40625 2.851562 18.035156 C 2.523438 18.652344 2.480469 18.867188 2.457031 19.898438 C 2.433594 20.804688 2.433594 20.824219 2.539062 20.921875 C 2.648438 21.019531 2.714844 21.019531 6.03125 21.019531 C 9.347656 21.019531 9.414062 21.019531 9.523438 20.921875 C 9.628906 20.824219 9.628906 20.804688 9.609375 19.921875 C 9.582031 18.902344 9.507812 18.574219 9.15625 17.933594 C 8.898438 17.464844 8.195312 16.78125 7.734375 16.546875 L 7.382812 16.367188 L 7.640625 16.113281 C 8.496094 15.269531 8.515625 13.886719 7.691406 12.996094 C 7.101562 12.359375 6.25 12.109375 5.425781 12.332031 Z M 6.671875 13.105469 C 7.320312 13.402344 7.699219 14.121094 7.5625 14.792969 C 7.460938 15.300781 7.121094 15.738281 6.640625 15.957031 C 5.503906 16.488281 4.160156 15.351562 4.511719 14.148438 C 4.789062 13.183594 5.785156 12.699219 6.671875 13.105469 Z M 6.722656 16.914062 C 8.0625 17.269531 8.929688 18.445312 8.9375 19.90625 L 8.9375 20.3125 L 8.203125 20.3125 L 8.203125 19.773438 C 8.203125 19.164062 8.144531 19.042969 7.851562 19.042969 C 7.5625 19.042969 7.519531 19.136719 7.519531 19.761719 L 7.519531 20.3125 L 4.542969 20.3125 L 4.542969 19.785156 C 4.542969 19.148438 4.492188 19.042969 4.199219 19.042969 C 3.90625 19.042969 3.859375 19.148438 3.859375 19.785156 L 3.859375 20.3125 L 3.109375 20.3125 L 3.136719 19.734375 C 3.15625 19.292969 3.1875 19.085938 3.285156 18.796875 C 3.441406 18.359375 3.785156 17.847656 4.121094 17.546875 C 4.394531 17.304688 4.925781 17.019531 5.296875 16.917969 C 5.621094 16.832031 6.40625 16.832031 6.722656 16.914062 Z M 6.722656 16.914062 "/>
<path style=" stroke:none;fill-rule:nonzero;fill:rgb(0%,0%,0%);fill-opacity:1;" d="M 18.421875 12.328125 C 17.402344 12.605469 16.75 13.460938 16.75 14.519531 C 16.75 15.199219 16.988281 15.78125 17.441406 16.1875 C 17.550781 16.285156 17.628906 16.371094 17.617188 16.375 C 17.613281 16.386719 17.464844 16.464844 17.300781 16.546875 C 16.636719 16.898438 16.097656 17.460938 15.773438 18.140625 C 15.507812 18.691406 15.429688 19.050781 15.394531 19.90625 C 15.363281 20.785156 15.394531 20.917969 15.667969 20.996094 C 15.785156 21.035156 16.925781 21.042969 19.121094 21.035156 C 22.265625 21.019531 22.40625 21.015625 22.503906 20.925781 C 22.601562 20.839844 22.609375 20.785156 22.609375 20.082031 C 22.609375 19.175781 22.535156 18.796875 22.242188 18.1875 C 21.886719 17.457031 21.351562 16.894531 20.675781 16.542969 L 20.367188 16.382812 L 20.636719 16.101562 C 21.46875 15.230469 21.484375 13.875 20.664062 12.984375 C 20.117188 12.382812 19.210938 12.117188 18.421875 12.328125 Z M 19.664062 13.132812 C 20.207031 13.402344 20.53125 13.921875 20.53125 14.527344 C 20.53125 15.386719 19.835938 16.082031 18.96875 16.082031 C 18.355469 16.082031 17.847656 15.761719 17.574219 15.203125 C 17.277344 14.605469 17.394531 13.90625 17.867188 13.433594 C 18.363281 12.933594 19.019531 12.820312 19.664062 13.132812 Z M 19.703125 16.917969 C 20.214844 17.050781 20.597656 17.273438 21.019531 17.699219 C 21.625 18.300781 21.839844 18.816406 21.90625 19.804688 L 21.9375 20.3125 L 21.144531 20.3125 L 21.144531 19.785156 C 21.144531 19.148438 21.09375 19.042969 20.800781 19.042969 C 20.507812 19.042969 20.460938 19.148438 20.460938 19.785156 L 20.460938 20.3125 L 17.53125 20.3125 L 17.53125 19.773438 C 17.53125 19.164062 17.472656 19.042969 17.179688 19.042969 C 16.890625 19.042969 16.847656 19.136719 16.847656 19.761719 L 16.847656 20.3125 L 16.113281 20.3125 L 16.113281 19.847656 C 16.113281 19.253906 16.175781 18.964844 16.417969 18.464844 C 16.757812 17.742188 17.453125 17.164062 18.238281 16.9375 C 18.609375 16.832031 19.316406 16.820312 19.703125 16.917969 Z M 19.703125 16.917969 "/>
<path style=" stroke:none;fill-rule:nonzero;fill:rgb(0%,0%,0%);fill-opacity:1;" d="M 7.863281 21.664062 C 7.863281 21.71875 8.417969 22.058594 8.863281 22.28125 C 10.761719 23.222656 13.183594 23.375 15.191406 22.675781 C 15.921875 22.421875 17.140625 21.792969 17.140625 21.664062 C 17.140625 21.644531 16.839844 21.628906 16.480469 21.628906 C 15.921875 21.628906 15.785156 21.644531 15.636719 21.722656 C 15.324219 21.882812 14.46875 22.164062 13.976562 22.269531 C 13.285156 22.410156 12.148438 22.445312 11.4375 22.34375 C 10.761719 22.246094 10.160156 22.074219 9.644531 21.835938 C 9.261719 21.664062 9.238281 21.660156 8.558594 21.640625 C 8.175781 21.636719 7.863281 21.644531 7.863281 21.664062 Z M 7.863281 21.664062 "/>
</g>
</svg>
