<svg width="25" height="21" viewBox="0 0 25 21" fill="none" xmlns="http://www.w3.org/2000/svg">
<path d="M11.6451 0.0348003C9.99211 0.239921 8.81569 1.23536 8.38131 2.79789C7.92884 4.42075 8.21842 6.74344 9.1294 8.90927C9.24403 9.18075 9.32849 9.41604 9.31642 9.4281C9.29832 9.44017 8.27875 8.81274 7.042 8.02846C5.49153 7.04509 4.74345 6.60468 4.62882 6.60468C4.53833 6.60468 4.39353 6.66501 4.30907 6.73741C4.10999 6.91839 0.0498108 14.0554 0.00758011 14.3027C-0.0165517 14.4535 0.0136131 14.532 0.146338 14.6768C0.315261 14.8517 6.23358 18.8938 6.63779 19.1049C6.82481 19.2075 7.20489 19.2135 12.1036 19.2135H17.3704L20.6342 20.1245C22.6432 20.6856 23.9463 21.0174 24.0368 20.9993C24.2118 20.951 24.3505 20.8123 24.3988 20.6253C24.441 20.4563 22.1183 11.4974 21.9796 11.2682C21.877 11.1113 22.0821 11.1777 18.6916 10.2245C16.5741 9.62719 15.832 9.44017 15.6691 9.4643L15.4519 9.5005L15.7113 8.84894C16.3267 7.3045 16.6404 5.8566 16.6404 4.55951C16.6404 3.26846 16.4232 2.39368 15.9104 1.63353C15.2227 0.601897 14.1971 0.077031 12.713 0.00463559C12.3691 -0.00743031 11.8865 0.00463559 11.6451 0.0348003ZM13.4852 1.13883C15.4338 1.65766 16.0914 3.7692 15.283 6.87013C14.8245 8.61969 13.7265 10.7553 12.719 11.8533L12.4174 12.1852L12.0795 11.8232C10.8669 10.5201 9.68443 7.98019 9.31039 5.85056C9.17766 5.12058 9.17766 3.86572 9.30436 3.32276C9.6784 1.73006 10.8247 0.939743 12.6285 1.03024C12.9302 1.0423 13.3163 1.0966 13.4852 1.13883ZM6.72225 9.06009C7.70562 9.68148 8.52007 10.2245 8.53817 10.2606C8.55627 10.3149 6.72829 17.3856 6.59556 17.7475C6.57143 17.826 1.2202 14.2303 1.2383 14.1459C1.28053 13.989 3.08438 10.8881 3.13265 10.8881C3.27744 10.8881 3.48859 10.5864 3.48859 10.3753C3.48859 10.2184 3.65148 9.88057 4.14015 9.01786C4.53229 8.32407 4.81584 7.88367 4.85807 7.90177C4.9003 7.91383 5.73888 8.4387 6.72225 9.06009ZM10.1248 10.9001C10.5833 11.7146 11.5908 12.9513 12.0493 13.2651C12.4294 13.5305 12.5923 13.4702 13.2137 12.8307C13.7748 12.2576 14.3117 11.5577 14.6797 10.9303C14.9029 10.5442 14.9271 10.5261 15.1442 10.5261C15.2709 10.5261 15.3735 10.5442 15.3735 10.5683C15.3735 10.5985 15.6872 12.3119 16.0673 14.3812C16.4474 16.4565 16.7611 18.1578 16.7611 18.1698C16.7611 18.1819 14.6978 18.1879 12.176 18.1879C9.65427 18.1879 7.591 18.1698 7.591 18.1517C7.591 18.1336 7.85041 17.1382 8.16413 15.9437C8.47784 14.7492 8.73726 13.7537 8.73726 13.7356C8.73726 13.7175 8.80362 13.7779 8.88808 13.8684C9.15956 14.1579 9.70856 14.0433 9.79302 13.6753C9.84129 13.4279 9.75683 13.253 9.38278 12.8789L9.057 12.5471L9.26212 11.7629C9.37675 11.3285 9.49138 10.876 9.52757 10.7493C9.57584 10.5623 9.61204 10.5261 9.75079 10.5261C9.88955 10.5321 9.94988 10.5925 10.1248 10.9001ZM18.8485 11.3466L21.147 11.9921L21.2677 12.4566L21.3884 12.9212L21.2496 13.0539C21.0867 13.2108 21.0565 13.5124 21.1832 13.6934C21.2315 13.7537 21.3582 13.8442 21.4668 13.8985L21.6719 13.995L22.414 16.8305C22.8182 18.3931 23.15 19.6841 23.1379 19.7022C23.1258 19.7384 17.9254 18.3267 17.853 18.2724C17.841 18.2603 17.5514 16.7823 17.5454 16.6918C17.5454 16.6857 17.5936 16.6797 17.654 16.6797C17.7746 16.6797 18.2814 16.3781 18.4986 16.179C18.6977 15.9919 18.6856 15.5877 18.4744 15.4188C18.2452 15.2378 18.0401 15.262 17.6841 15.5033L17.3704 15.7144L17.3101 15.3947C17.2739 15.2258 17.0808 14.17 16.8817 13.0599C16.6827 11.9499 16.5017 10.9665 16.4836 10.87C16.4655 10.7795 16.4715 10.7071 16.5017 10.7071C16.5258 10.7071 17.5816 10.9906 18.8485 11.3466Z" fill="black"/>
<path d="M11.8561 2.32137C10.2152 2.73764 9.55155 4.71645 10.6073 6.04973C11.639 7.35888 13.7686 7.10549 14.5167 5.58519C14.6615 5.27751 14.6796 5.18702 14.6796 4.58372C14.6796 3.9563 14.6675 3.902 14.4925 3.55812C14.2573 3.11168 13.7927 2.66524 13.3463 2.46012C12.9722 2.2912 12.2483 2.22484 11.8561 2.32137ZM12.7852 3.353C13.304 3.50986 13.6841 4.03472 13.6841 4.58976C13.6781 5.51883 12.7309 6.14626 11.8984 5.76618C11.4037 5.54296 11.0236 4.8733 11.1262 4.40877C11.3011 3.60035 12.0371 3.12978 12.7852 3.353Z" fill="black"/>
<path d="M4.48986 9.94085C4.38127 10.0494 4.33301 10.1641 4.33301 10.3149C4.33301 10.6769 4.59846 10.8398 5.34051 10.9242C5.61803 10.9604 5.66629 10.9484 5.80505 10.8096C5.91364 10.701 5.9619 10.5864 5.9619 10.4476C5.9619 10.0856 5.66629 9.90465 4.9544 9.82019C4.67689 9.79003 4.62862 9.80209 4.48986 9.94085Z" fill="black"/>
<path d="M6.75243 10.9242C6.50508 11.238 6.57748 11.4491 7.06011 11.8533C7.48845 12.2093 7.74183 12.2515 7.98315 12.0041C8.26067 11.7327 8.16414 11.4189 7.69357 11.0208C7.44019 10.8096 7.34366 10.7674 7.13251 10.7674C6.92739 10.7674 6.84896 10.7975 6.75243 10.9242Z" fill="black"/>
<path d="M10.3001 14.5017C9.99844 14.8034 10.0769 15.0507 10.6198 15.473C11.1326 15.8833 11.6334 15.7686 11.6334 15.2438C11.6334 14.9663 11.573 14.8818 11.1568 14.5681C10.7526 14.2725 10.5474 14.2544 10.3001 14.5017Z" fill="black"/>
<path d="M12.4532 15.7808C12.3266 15.8773 12.2964 15.9558 12.2964 16.1669C12.2964 16.4927 12.4351 16.6134 12.9962 16.8004C13.3341 16.915 13.4125 16.921 13.5693 16.8607C13.7805 16.7702 13.865 16.6375 13.865 16.3841C13.865 16.1368 13.6598 15.9377 13.2436 15.7808C12.8032 15.624 12.6584 15.624 12.4532 15.7808Z" fill="black"/>
<path d="M14.981 16.2695C14.6673 16.4384 14.607 16.8245 14.8604 17.0718C14.9931 17.2106 15.0534 17.2227 15.524 17.2227C15.9945 17.2227 16.0549 17.2106 16.1876 17.0718C16.2902 16.9753 16.3384 16.8607 16.3384 16.7099C16.3384 16.559 16.2902 16.4444 16.1876 16.3479C16.0609 16.2152 15.9945 16.1971 15.5722 16.1971C15.3128 16.1971 15.0474 16.2333 14.981 16.2695Z" fill="black"/>
<path d="M19.3431 13.8925C19.0294 14.2122 18.9932 14.2726 18.9932 14.4958C18.9932 14.7914 19.1983 14.9905 19.518 14.9905C19.8679 14.9905 20.4411 14.3751 20.4411 13.995C20.4411 13.7598 20.1937 13.5426 19.9222 13.5426C19.7292 13.5426 19.6508 13.5908 19.3431 13.8925Z" fill="black"/>
</svg>
