<svg width="23" height="23" viewBox="0 0 23 23" fill="none" xmlns="http://www.w3.org/2000/svg">
<g clip-path="url(#clip0_36_75)">
<path d="M8.28785 0.0853297C8.18903 0.130252 7.64098 0.583963 7.06598 1.09607C6.49547 1.60818 6.01031 2.02595 5.98785 2.02146C5.96989 2.01697 5.61051 1.70701 5.18824 1.33865C4.77047 0.965799 4.34371 0.624392 4.24489 0.57947C3.8316 0.386306 3.20719 0.530056 2.94215 0.875955C2.67711 1.22635 2.69508 0.498611 2.69508 11.5C2.69508 22.5013 2.67711 21.7736 2.94215 22.124C3.20719 22.4699 3.8316 22.6137 4.24489 22.4205C4.34371 22.3756 4.77496 22.0297 5.20621 21.6478C5.63297 21.266 5.99235 20.956 5.99684 20.956C6.00582 20.956 6.48199 21.3783 7.05699 21.8949C7.63649 22.4115 8.18903 22.8697 8.28785 22.9146C8.53942 23.0314 8.98864 23.0269 9.22672 22.9101C9.33004 22.8607 9.8736 22.407 10.4396 21.8994C11.0011 21.3918 11.4818 20.9785 11.4998 20.9785C11.5177 20.9785 11.9894 21.3873 12.5509 21.8904C13.1125 22.389 13.6515 22.8428 13.7548 22.9012C13.9929 23.0269 14.4466 23.0359 14.7117 22.9146C14.8554 22.8517 15.947 21.9129 16.8679 21.0638L17.0027 20.9426L17.7888 21.6388C18.2201 22.0252 18.6558 22.3756 18.7547 22.4205C19.1679 22.6137 19.7923 22.4699 20.0574 22.124C20.3224 21.7736 20.3045 22.5013 20.3045 11.4955C20.3045 2.12478 20.3 1.37908 20.2281 1.20388C20.0484 0.745681 19.6845 0.494119 19.2084 0.494119C19.0377 0.494119 18.867 0.530056 18.7547 0.57947C18.6558 0.624392 18.2291 0.970291 17.8023 1.34314C17.38 1.72049 17.0162 2.03045 17.0027 2.03045C16.9847 2.03045 16.5041 1.60818 15.9336 1.09607C15.3586 0.583963 14.8105 0.130252 14.7117 0.0853297C14.4601 -0.0314672 14.0109 -0.026975 13.7728 0.0898219C13.6695 0.139236 13.1259 0.592947 12.5599 1.10056C11.9984 1.60818 11.5177 2.02146 11.4998 2.02146C11.4818 2.02146 11.0101 1.61267 10.4486 1.10955C9.88707 0.610916 9.34801 0.157205 9.24469 0.0988063C9.0066 -0.026975 8.55289 -0.0359593 8.28785 0.0853297ZM9.84215 2.09334C10.4037 2.59197 10.9293 3.0367 11.0101 3.08162C11.2213 3.19842 11.7783 3.19842 11.9849 3.08611C12.0703 3.04119 12.6138 2.57849 13.1933 2.06189L14.249 1.11853L14.3478 1.20388C14.3972 1.2533 14.8869 1.68904 15.4304 2.1742C16.4771 3.10857 16.6074 3.18943 17.0207 3.18943C17.3576 3.18943 17.6226 3.02322 18.4177 2.31345L19.1589 1.6531L19.1724 6.57654C19.1769 9.28533 19.1769 13.7146 19.1724 16.4189L19.1589 21.3379L18.4177 20.682C17.5418 19.9049 17.3351 19.7881 16.9173 19.8195C16.7646 19.833 16.5804 19.8734 16.5086 19.9138C16.4052 19.9678 15.1879 21.0234 14.3478 21.7961L14.249 21.8814L13.1933 20.9381C12.6138 20.4215 12.0703 19.9588 11.9849 19.9138C11.7783 19.8015 11.2213 19.8015 11.0146 19.9138C10.9293 19.9588 10.3857 20.4215 9.80621 20.9381L8.75055 21.8814L8.65172 21.7961C7.81168 21.0234 6.5943 19.9678 6.49098 19.9138C6.4191 19.8734 6.23492 19.833 6.08219 19.8195C5.65992 19.7881 5.45778 19.9049 4.5818 20.6865L3.84059 21.3469L3.82711 16.4234C3.82262 13.7146 3.82262 9.28533 3.82711 6.58103L3.84059 1.66209L4.5818 2.31795C5.37692 3.02322 5.64196 3.18943 5.97887 3.18943C6.39664 3.18943 6.51793 3.11306 7.65895 2.09334C8.25192 1.56326 8.75504 1.14099 8.78199 1.15896C8.80446 1.17244 9.28512 1.5947 9.84215 2.09334Z" fill="black"/>
<path d="M6.10488 7.79395C5.9791 7.86133 5.83984 8.1084 5.83984 8.26113C5.83984 8.42734 5.95664 8.64746 6.09141 8.7373C6.21719 8.82266 6.31602 8.82715 9.07422 8.82715C11.801 8.82715 11.9312 8.82266 12.0525 8.7418C12.385 8.51719 12.3895 8.01406 12.066 7.79844C11.9627 7.73555 11.6752 7.72656 9.0877 7.72656C6.69785 7.73105 6.20371 7.74004 6.10488 7.79395Z" fill="black"/>
<path d="M6.02812 11.0867C5.78105 11.3203 5.79902 11.7605 6.06406 11.9492C6.18984 12.0391 6.24824 12.0391 11.4996 12.0391C16.7824 12.0391 16.8094 12.0391 16.9396 11.9447C17.2137 11.7516 17.2137 11.2484 16.9396 11.0553C16.8094 10.9609 16.7824 10.9609 11.4861 10.9609H6.16289L6.02812 11.0867Z" fill="black"/>
<path d="M6.29355 14.1818C6.04199 14.2312 5.83984 14.4783 5.83984 14.7388C5.83984 14.8961 5.9791 15.1386 6.11387 15.206C6.30254 15.3049 16.6975 15.3049 16.8861 15.206C17.0209 15.1386 17.1602 14.8961 17.1602 14.7388C17.1602 14.5726 17.0434 14.3525 16.9086 14.2627C16.7828 14.1728 16.657 14.1728 11.5898 14.1683C8.7373 14.1638 6.35195 14.1728 6.29355 14.1818Z" fill="black"/>
</g>
<defs>
<clipPath id="clip0_36_75">
<rect width="23" height="23" fill="white"/>
</clipPath>
</defs>
</svg>
