<?xml version="1.0" encoding="UTF-8"?>
<svg xmlns="http://www.w3.org/2000/svg" xmlns:xlink="http://www.w3.org/1999/xlink" width="25px" height="25px" viewBox="0 0 25 25" version="1.1">
<g id="surface1">
<path style=" stroke:none;fill-rule:nonzero;fill:rgb(0%,0%,0%);fill-opacity:1;" d="M 6.710938 0.117188 C 6.390625 0.261719 6.125 0.53125 5.976562 0.847656 C 5.871094 1.082031 5.859375 1.152344 5.859375 2.007812 L 5.859375 2.914062 L 5.140625 2.945312 C 4.25 2.976562 3.726562 3.109375 2.953125 3.492188 C 1.601562 4.164062 0.566406 5.429688 0.160156 6.910156 C 0.0351562 7.359375 0.0234375 7.464844 0.0234375 8.300781 C 0.0234375 9.136719 0.0351562 9.242188 0.160156 9.691406 C 0.566406 11.171875 1.601562 12.4375 2.953125 13.109375 C 3.726562 13.492188 4.25 13.621094 5.140625 13.65625 L 5.859375 13.6875 L 5.859375 23.902344 L 5.976562 24.148438 C 6.125 24.46875 6.390625 24.734375 6.710938 24.882812 L 6.957031 25 L 23.902344 25 L 24.152344 24.882812 C 24.46875 24.734375 24.738281 24.46875 24.882812 24.148438 L 25 23.902344 L 25 5.101562 L 22.445312 2.554688 L 19.898438 0 L 6.957031 0 Z M 19.140625 3.289062 L 19.140625 5.601562 L 19.398438 5.859375 L 24.023438 5.859375 L 24.015625 14.753906 C 24 24.421875 24.019531 23.785156 23.734375 23.933594 C 23.558594 24.027344 7.300781 24.027344 7.125 23.933594 C 6.847656 23.789062 6.859375 24.082031 6.847656 18.574219 L 6.835938 13.492188 L 7.042969 13.433594 C 7.160156 13.398438 7.433594 13.285156 7.65625 13.179688 C 9.09375 12.515625 10.148438 11.25 10.582031 9.6875 C 10.707031 9.238281 10.71875 9.136719 10.71875 8.300781 C 10.71875 7.464844 10.707031 7.363281 10.582031 6.914062 C 10.148438 5.351562 9.09375 4.085938 7.65625 3.421875 C 7.433594 3.316406 7.160156 3.203125 7.046875 3.167969 L 6.835938 3.109375 L 6.835938 2.34375 C 6.835938 1.917969 6.851562 1.507812 6.867188 1.421875 C 6.898438 1.246094 7.089844 1.039062 7.242188 1.011719 C 7.300781 1 10 0.984375 13.246094 0.980469 L 19.140625 0.976562 Z M 21.703125 3.320312 L 23.265625 4.882812 L 20.117188 4.882812 L 20.117188 3.320312 C 20.117188 2.460938 20.121094 1.757812 20.132812 1.757812 C 20.136719 1.757812 20.84375 2.460938 21.703125 3.320312 Z M 4.882812 6.246094 L 4.882812 8.53125 L 5.140625 8.789062 L 9.71875 8.789062 L 9.6875 8.945312 C 9.359375 10.804688 8.0625 12.167969 6.230469 12.574219 C 5.714844 12.691406 4.726562 12.652344 4.199219 12.5 C 2.765625 12.089844 1.578125 10.90625 1.171875 9.472656 C 1.019531 8.949219 0.988281 8.011719 1.09375 7.464844 C 1.386719 6.019531 2.378906 4.8125 3.726562 4.273438 C 4.042969 4.140625 4.605469 3.984375 4.847656 3.960938 C 4.867188 3.953125 4.882812 4.984375 4.882812 6.246094 Z M 6.425781 4.078125 C 8.125 4.507812 9.375 5.882812 9.6875 7.652344 L 9.71875 7.8125 L 5.859375 7.8125 L 5.859375 5.882812 C 5.859375 4.820312 5.878906 3.953125 5.902344 3.953125 C 5.929688 3.953125 6.164062 4.007812 6.425781 4.078125 Z M 6.425781 4.078125 "/>
<path style=" stroke:none;fill-rule:nonzero;fill:rgb(0%,0%,0%);fill-opacity:1;" d="M 12.140625 3.054688 C 12.035156 3.160156 12.011719 3.230469 12.011719 3.417969 C 12.011719 3.601562 12.035156 3.675781 12.140625 3.777344 L 12.269531 3.90625 L 17.90625 3.90625 L 18.039062 3.777344 C 18.140625 3.675781 18.164062 3.601562 18.164062 3.417969 C 18.164062 3.230469 18.140625 3.160156 18.039062 3.054688 L 17.90625 2.929688 L 12.269531 2.929688 Z M 12.140625 3.054688 "/>
<path style=" stroke:none;fill-rule:nonzero;fill:rgb(0%,0%,0%);fill-opacity:1;" d="M 12.140625 5.007812 C 12.035156 5.113281 12.011719 5.183594 12.011719 5.371094 C 12.011719 5.554688 12.035156 5.628906 12.140625 5.730469 L 12.269531 5.859375 L 17.90625 5.859375 L 18.039062 5.730469 C 18.140625 5.628906 18.164062 5.554688 18.164062 5.371094 C 18.164062 5.183594 18.140625 5.113281 18.039062 5.007812 L 17.90625 4.882812 L 12.269531 4.882812 Z M 12.140625 5.007812 "/>
<path style=" stroke:none;fill-rule:nonzero;fill:rgb(0%,0%,0%);fill-opacity:1;" d="M 11.847656 7.9375 C 11.742188 8.042969 11.71875 8.113281 11.71875 8.300781 C 11.71875 8.484375 11.742188 8.558594 11.847656 8.660156 C 11.949219 8.765625 12.023438 8.789062 12.207031 8.789062 C 12.394531 8.789062 12.464844 8.765625 12.570312 8.660156 C 12.671875 8.558594 12.695312 8.484375 12.695312 8.300781 C 12.695312 8.113281 12.671875 8.042969 12.570312 7.9375 C 12.464844 7.835938 12.394531 7.8125 12.207031 7.8125 C 12.023438 7.8125 11.949219 7.835938 11.847656 7.9375 Z M 11.847656 7.9375 "/>
<path style=" stroke:none;fill-rule:nonzero;fill:rgb(0%,0%,0%);fill-opacity:1;" d="M 13.800781 7.9375 C 13.695312 8.042969 13.671875 8.113281 13.671875 8.300781 C 13.671875 8.484375 13.695312 8.558594 13.800781 8.660156 L 13.929688 8.789062 L 21.8125 8.789062 L 21.945312 8.660156 C 22.046875 8.558594 22.070312 8.484375 22.070312 8.300781 C 22.070312 8.113281 22.046875 8.042969 21.945312 7.9375 L 21.8125 7.8125 L 13.929688 7.8125 Z M 13.800781 7.9375 "/>
<path style=" stroke:none;fill-rule:nonzero;fill:rgb(0%,0%,0%);fill-opacity:1;" d="M 11.847656 9.890625 C 11.742188 9.996094 11.71875 10.066406 11.71875 10.253906 C 11.71875 10.4375 11.742188 10.511719 11.847656 10.613281 C 11.949219 10.71875 12.023438 10.742188 12.207031 10.742188 C 12.394531 10.742188 12.464844 10.71875 12.570312 10.613281 C 12.671875 10.511719 12.695312 10.4375 12.695312 10.253906 C 12.695312 10.066406 12.671875 9.996094 12.570312 9.890625 C 12.464844 9.789062 12.394531 9.765625 12.207031 9.765625 C 12.023438 9.765625 11.949219 9.789062 11.847656 9.890625 Z M 11.847656 9.890625 "/>
<path style=" stroke:none;fill-rule:nonzero;fill:rgb(0%,0%,0%);fill-opacity:1;" d="M 13.800781 9.890625 C 13.695312 9.996094 13.671875 10.066406 13.671875 10.253906 C 13.671875 10.4375 13.695312 10.511719 13.800781 10.613281 L 13.929688 10.742188 L 21.8125 10.742188 L 21.945312 10.613281 C 22.046875 10.511719 22.070312 10.4375 22.070312 10.253906 C 22.070312 10.066406 22.046875 9.996094 21.945312 9.890625 L 21.8125 9.765625 L 13.929688 9.765625 Z M 13.800781 9.890625 "/>
<path style=" stroke:none;fill-rule:nonzero;fill:rgb(0%,0%,0%);fill-opacity:1;" d="M 20.820312 13.105469 C 20.503906 13.25 20.234375 13.519531 20.089844 13.835938 C 19.933594 14.167969 19.925781 14.695312 20.074219 15.039062 L 20.175781 15.277344 L 18.5 17.074219 L 16.820312 18.871094 L 16.464844 18.855469 C 16.269531 18.847656 16.046875 18.863281 15.96875 18.886719 C 15.832031 18.933594 15.820312 18.925781 15.078125 18.003906 C 14.332031 17.074219 14.328125 17.066406 14.386719 16.917969 C 14.496094 16.664062 14.46875 16.074219 14.335938 15.789062 C 14.082031 15.242188 13.597656 14.941406 12.988281 14.941406 C 12.367188 14.941406 11.890625 15.25 11.636719 15.804688 C 11.527344 16.039062 11.519531 16.113281 11.539062 16.46875 C 11.554688 16.6875 11.574219 16.917969 11.582031 16.976562 C 11.601562 17.125 9.925781 18.964844 9.816406 18.910156 C 9.777344 18.894531 9.5625 18.871094 9.339844 18.855469 C 8.996094 18.84375 8.90625 18.851562 8.675781 18.960938 C 8.121094 19.214844 7.8125 19.691406 7.8125 20.3125 C 7.8125 21.171875 8.417969 21.777344 9.277344 21.777344 C 9.898438 21.777344 10.375 21.46875 10.628906 20.914062 C 10.738281 20.679688 10.746094 20.605469 10.726562 20.25 C 10.714844 20.027344 10.695312 19.800781 10.683594 19.742188 C 10.664062 19.59375 12.339844 17.753906 12.453125 17.800781 C 12.582031 17.867188 13.277344 17.878906 13.421875 17.832031 C 13.566406 17.78125 13.570312 17.78125 14.316406 18.714844 C 15.0625 19.644531 15.070312 19.652344 15.011719 19.800781 C 14.898438 20.054688 14.925781 20.644531 15.058594 20.925781 C 15.3125 21.472656 15.796875 21.777344 16.40625 21.777344 C 17.015625 21.777344 17.5 21.472656 17.753906 20.925781 C 17.910156 20.59375 17.914062 20.066406 17.769531 19.726562 L 17.667969 19.488281 L 19.339844 17.691406 L 21.019531 15.894531 L 21.398438 15.90625 C 21.71875 15.921875 21.816406 15.90625 22.035156 15.804688 C 22.59375 15.550781 22.902344 15.066406 22.902344 14.453125 C 22.902344 13.59375 22.296875 12.988281 21.4375 12.988281 C 21.152344 12.988281 21.011719 13.015625 20.820312 13.105469 Z M 21.75 14.140625 C 22.027344 14.421875 21.832031 14.890625 21.4375 14.890625 C 21.304688 14.890625 21.214844 14.859375 21.125 14.765625 C 20.84375 14.480469 21.039062 14.011719 21.4375 14.011719 C 21.566406 14.011719 21.65625 14.046875 21.75 14.140625 Z M 13.300781 16.09375 C 13.578125 16.375 13.382812 16.84375 12.988281 16.84375 C 12.855469 16.84375 12.769531 16.8125 12.675781 16.71875 C 12.398438 16.433594 12.59375 15.964844 12.988281 15.964844 C 13.121094 15.964844 13.207031 16 13.300781 16.09375 Z M 9.589844 20 C 9.867188 20.28125 9.671875 20.75 9.277344 20.75 C 9.027344 20.75 8.839844 20.5625 8.839844 20.3125 C 8.839844 19.917969 9.308594 19.722656 9.589844 20 Z M 16.71875 20 C 16.996094 20.28125 16.800781 20.75 16.40625 20.75 C 16.15625 20.75 15.96875 20.5625 15.96875 20.3125 C 15.96875 19.917969 16.4375 19.722656 16.71875 20 Z M 16.71875 20 "/>
<path style=" stroke:none;fill-rule:nonzero;fill:rgb(0%,0%,0%);fill-opacity:1;" d="M 2.074219 7.945312 C 1.945312 8.082031 1.945312 8.085938 1.96875 8.570312 C 2.011719 9.429688 2.308594 10.078125 2.949219 10.722656 C 3.59375 11.363281 4.242188 11.660156 5.101562 11.703125 C 5.585938 11.726562 5.589844 11.726562 5.726562 11.597656 C 5.835938 11.488281 5.859375 11.414062 5.859375 11.230469 C 5.859375 10.902344 5.707031 10.757812 5.332031 10.722656 C 4.605469 10.648438 4.140625 10.4375 3.6875 9.984375 C 3.234375 9.53125 3.023438 9.066406 2.949219 8.339844 C 2.914062 7.964844 2.769531 7.8125 2.441406 7.8125 C 2.257812 7.8125 2.183594 7.835938 2.074219 7.945312 Z M 2.074219 7.945312 "/>
</g>
</svg>
