<?xml version="1.0" standalone="no"?>
<!DOCTYPE svg PUBLIC "-//W3C//DTD SVG 20010904//EN"
 "http://www.w3.org/TR/2001/REC-SVG-20010904/DTD/svg10.dtd">
<svg version="1.0" xmlns="http://www.w3.org/2000/svg"
 width="512.000000pt" height="512.000000pt" viewBox="0 0 512.000000 512.000000"
 preserveAspectRatio="xMidYMid meet">
<metadata>
Created by potrace 1.16, written by Peter Selinger 2001-2019
</metadata>
<g transform="translate(0.000000,512.000000) scale(0.100000,-0.100000)"
fill="#000000" stroke="none">
<path d="M655 5105 c-164 -45 -293 -151 -369 -302 -59 -119 -56 -12 -56 -1888
0 -1909 -5 -1771 67 -1908 73 -138 228 -255 381 -286 35 -7 291 -11 767 -11
l714 0 12 -23 c6 -12 36 -55 66 -96 214 -287 528 -488 883 -566 102 -22 388
-31 499 -16 546 78 1001 446 1186 961 57 159 85 318 85 497 0 298 -86 580
-251 825 -77 114 -272 312 -382 386 -137 94 -324 178 -494 222 l-43 11 0 504
0 504 -82 88 c-331 353 -1050 1102 -1063 1107 -9 3 -434 6 -943 5 -750 0 -937
-3 -977 -14z m1757 -582 c5 -413 6 -425 71 -535 61 -105 191 -194 316 -218 29
-5 199 -10 377 -10 l324 0 0 -409 0 -408 -127 -6 c-154 -7 -270 -27 -401 -68
-170 -55 -359 -156 -483 -260 l-47 -39 -695 0 -695 0 -31 -26 c-38 -31 -48
-78 -28 -127 29 -69 9 -67 661 -67 l586 0 -58 -88 c-31 -48 -72 -120 -91 -160
l-35 -72 -488 0 c-549 0 -546 0 -574 -66 -21 -50 -11 -96 27 -128 l31 -26 464
0 c365 0 464 -3 464 -12 0 -7 -7 -53 -15 -103 -36 -219 -7 -531 66 -716 l19
-50 -662 3 -663 3 -58 27 c-72 34 -112 67 -154 126 -67 93 -63 -24 -63 1829 0
1855 -4 1728 65 1828 34 50 78 90 125 115 71 38 83 39 937 39 l831 1 4 -377z
m634 -223 l299 -315 -45 -3 c-25 -2 -139 -2 -255 0 -175 3 -217 7 -253 22 -52
22 -128 105 -142 154 -5 21 -10 153 -10 302 l0 265 54 -55 c29 -30 188 -197
352 -370z m587 -1606 c381 -66 718 -315 894 -660 57 -110 104 -251 124 -364
16 -94 17 -303 1 -396 -101 -608 -622 -1054 -1232 -1054 -543 0 -1021 352
-1190 875 -141 441 -16 934 321 1262 106 103 197 167 334 236 75 37 221 85
310 101 109 19 328 20 438 0z"/>
<path d="M1041 3093 c-93 -46 -68 -189 37 -207 65 -10 1084 -7 1124 4 80 23
106 119 49 182 l-29 33 -574 2 c-520 3 -576 1 -607 -14z"/>
<path d="M3352 2268 c-40 -29 -629 -662 -654 -703 -56 -93 44 -200 145 -154
14 6 123 117 243 246 l219 235 5 -594 c3 -326 9 -601 13 -610 31 -62 146 -69
185 -10 15 24 17 78 22 620 l5 595 218 -235 c119 -129 229 -240 243 -246 51
-24 111 -8 140 36 20 30 20 95 1 123 -22 31 -628 678 -656 700 -33 26 -90 24
-129 -3z"/>
</g>
</svg>
