<?xml version="1.0" standalone="no"?>
<!DOCTYPE svg PUBLIC "-//W3C//DTD SVG 20010904//EN"
 "http://www.w3.org/TR/2001/REC-SVG-20010904/DTD/svg10.dtd">
<svg version="1.0" xmlns="http://www.w3.org/2000/svg"
 width="512.000000pt" height="512.000000pt" viewBox="0 0 512.000000 512.000000"
 preserveAspectRatio="xMidYMid meet">
<metadata>
Created by potrace 1.16, written by Peter Selinger 2001-2019
</metadata>
<g transform="translate(0.000000,512.000000) scale(0.100000,-0.100000)"
fill="#000000" stroke="none">
<path d="M2439 4980 c-94 -11 -180 -33 -281 -71 -83 -32 -122 -67 -133 -118
-5 -23 -23 -40 -83 -77 -145 -91 -290 -258 -364 -422 -38 -84 -75 -228 -84
-327 -6 -66 -11 -80 -35 -105 l-29 -28 0 -172 0 -172 29 -29 c19 -19 40 -29
59 -29 l30 0 5 -187 c6 -225 22 -294 102 -458 66 -135 158 -253 265 -337 77
-61 79 -64 74 -98 -22 -125 -136 -245 -223 -233 -29 4 -74 -6 -182 -42 -132
-44 -179 -70 -190 -103 -2 -6 -102 -50 -222 -96 -120 -46 -225 -92 -233 -103
-109 -139 -219 -346 -273 -517 -79 -248 -140 -703 -141 -1058 l0 -68 2031 0
2031 0 -7 112 c-26 473 -68 735 -165 1029 -53 162 -126 319 -202 436 -28 43
-52 80 -53 81 -2 2 -102 42 -222 88 -120 46 -220 90 -222 96 -11 33 -58 59
-190 103 -108 36 -153 46 -182 42 -87 -12 -201 107 -223 234 -6 33 -4 37 39
68 122 87 238 231 309 382 72 152 87 224 93 442 l5 187 30 0 c19 0 40 10 59
29 l29 29 0 170 c0 155 -2 171 -20 195 -11 14 -29 28 -39 32 -15 4 -19 20 -24
88 -22 304 -212 606 -478 761 -37 21 -48 34 -53 60 -9 48 -46 80 -134 117
-140 58 -346 86 -503 69z m324 -169 c114 -30 167 -55 161 -78 -2 -10 -29 -191
-59 -403 -31 -212 -58 -397 -61 -412 l-6 -28 -249 0 c-137 0 -249 3 -249 8 0
4 -27 191 -60 415 -33 225 -60 416 -60 427 0 22 108 64 221 85 97 19 260 12
362 -14z m-663 -570 c27 -189 50 -345 50 -347 0 -2 -115 -4 -255 -4 l-255 0 0
33 c0 126 63 309 150 437 62 91 249 260 257 232 2 -4 25 -162 53 -351z m1032
308 c178 -133 308 -366 325 -579 l6 -80 -258 0 c-241 0 -257 1 -253 18 3 9 27
169 54 355 27 185 51 337 54 337 3 0 35 -23 72 -51z m408 -884 l0 -85 -980 0
-980 0 0 85 0 85 980 0 980 0 0 -85z m-122 -412 c-4 -166 -7 -184 -36 -273
-47 -142 -108 -238 -221 -350 -178 -175 -358 -250 -604 -250 -236 0 -444 87
-610 257 -178 182 -246 361 -247 646 l0 147 861 0 861 0 -4 -177z m-1031
-1018 c164 -29 332 -15 495 39 l98 32 20 -61 c12 -33 31 -75 44 -94 l22 -35
-51 -46 c-228 -206 -477 -255 -709 -138 -74 37 -165 99 -217 145 l-38 35 24
36 c14 20 34 64 45 98 l21 61 80 -29 c45 -15 120 -35 166 -43z m-264 -374
c130 -88 295 -141 437 -141 191 0 363 73 554 236 l66 56 40 -19 39 -18 1 -257
0 -258 -700 0 -700 0 0 258 0 257 38 16 37 15 70 -56 c39 -31 91 -71 118 -89z
m-413 -156 l0 -245 -85 0 -85 0 0 219 0 219 73 25 c39 14 78 26 85 26 9 1 12
-54 12 -244z m1792 219 l78 -26 0 -219 0 -219 -85 0 -85 0 0 245 c0 135 3 245
7 245 5 0 43 -12 85 -26z m613 -335 c157 -266 254 -600 300 -1041 8 -81 15
-175 15 -208 l0 -60 -250 0 -250 0 0 508 c0 472 -2 510 -19 548 -23 51 -80 98
-137 114 l-44 13 0 167 0 168 169 -66 169 -65 47 -78z m-2725 37 l0 -163 -44
-13 c-57 -16 -114 -63 -137 -114 -17 -38 -19 -76 -19 -548 l0 -508 -255 0
-255 0 6 112 c18 358 77 697 155 896 41 102 99 215 158 302 l50 75 158 62 c87
34 164 62 171 62 9 1 12 -38 12 -163z m2370 -336 c19 -19 20 -33 20 -515 l0
-495 -1220 0 -1220 0 0 495 c0 482 1 496 20 515 20 20 33 20 1200 20 1167 0
1180 0 1200 -20z"/>
<path d="M1620 1040 c-27 -27 -26 -81 1 -106 17 -15 36 -19 91 -19 61 0 72 3
89 24 25 30 24 62 -2 95 -19 24 -27 26 -90 26 -56 0 -73 -4 -89 -20z"/>
<path d="M3321 1034 c-26 -33 -27 -65 -2 -95 17 -21 28 -24 89 -24 83 0 112
18 112 72 0 54 -28 73 -109 73 -63 0 -71 -2 -90 -26z"/>
</g>
</svg>
