<?xml version="1.0" standalone="no"?>
<!DOCTYPE svg PUBLIC "-//W3C//DTD SVG 20010904//EN"
 "http://www.w3.org/TR/2001/REC-SVG-20010904/DTD/svg10.dtd">
<svg version="1.0" xmlns="http://www.w3.org/2000/svg"
 width="512.000000pt" height="512.000000pt" viewBox="0 0 512.000000 512.000000"
 preserveAspectRatio="xMidYMid meet">
<metadata>
Created by potrace 1.16, written by Peter Selinger 2001-2019
</metadata>
<g transform="translate(0.000000,512.000000) scale(0.100000,-0.100000)"
fill="#000000" stroke="none">
<path d="M199 4523 c-51 -8 -132 -66 -164 -117 l-30 -49 -3 -1266 c-3 -1388
-6 -1309 55 -1382 23 -27 24 -31 10 -47 -8 -9 -25 -37 -38 -62 -21 -39 -24
-59 -24 -150 0 -95 3 -110 27 -155 51 -97 174 -184 258 -185 48 0 54 -7 68
-70 15 -66 64 -164 111 -223 94 -115 224 -190 375 -215 87 -14 105 -14 190 0
136 22 228 69 326 167 84 83 139 177 161 276 l12 55 813 0 814 0 6 -28 c49
-222 208 -392 429 -458 80 -24 238 -24 320 0 219 64 380 237 429 458 l6 26
287 4 c322 4 334 6 407 76 79 75 76 50 76 661 0 447 -3 553 -15 600 -26 99
-551 1360 -583 1400 -16 20 -51 47 -78 61 l-48 25 -533 3 -533 3 0 191 c0 117
-5 206 -12 230 -15 50 -78 122 -132 151 l-41 22 -1460 1 c-803 1 -1472 -1
-1486 -3z m2920 -199 l31 -26 0 -1249 0 -1249 -1462 0 -1462 0 -23 22 -23 21
0 1227 c0 1296 -2 1243 45 1268 14 8 432 11 1442 12 l1421 0 31 -26z m543
-1241 c3 -603 5 -672 20 -705 29 -65 68 -107 126 -135 l57 -28 538 -3 537 -3
0 -79 0 -80 -58 0 c-48 0 -62 -4 -79 -22 -29 -33 -35 -57 -22 -95 13 -41 52
-63 114 -63 l45 0 0 -80 0 -80 -54 0 c-89 0 -132 -52 -102 -125 17 -40 47 -55
112 -55 l44 0 0 -98 c0 -93 -1 -100 -26 -123 -26 -24 -26 -24 -293 -27 l-268
-3 -17 68 c-51 201 -208 363 -416 428 -45 15 -105 19 -322 23 l-268 4 0 974 0
974 165 0 164 0 3 -667z m707 650 c13 -12 118 -252 285 -658 145 -352 266
-650 270 -663 l7 -22 -501 0 c-565 0 -561 -1 -579 67 -7 25 -11 253 -11 666
l0 627 254 0 c227 0 256 -2 275 -17z m-3896 -2157 c-48 -54 -101 -161 -116
-233 -10 -48 -14 -53 -38 -53 -34 0 -87 36 -116 79 -29 43 -30 108 -3 161 33
65 90 88 218 89 l94 1 -39 -44z m551 29 c233 -49 385 -294 320 -516 -34 -113
-88 -186 -187 -250 -270 -175 -637 30 -637 355 0 119 44 219 133 304 64 60
119 89 201 107 79 17 88 17 170 0z m2257 -37 c-49 -66 -97 -165 -112 -235
l-12 -53 -812 0 -811 0 -12 58 c-15 74 -59 164 -111 230 l-41 52 975 0 976 0
-40 -52z m615 21 c111 -41 190 -115 239 -222 114 -249 -40 -537 -315 -587
-271 -49 -529 209 -480 480 25 136 115 255 235 311 110 52 214 57 321 18z"/>
<path d="M400 4183 c-60 -23 -79 -96 -39 -147 l20 -26 170 0 c167 0 170 0 194
25 35 34 34 93 -1 126 -24 23 -32 24 -177 26 -84 1 -159 -1 -167 -4z"/>
<path d="M984 4176 c-22 -10 -35 -25 -43 -49 -13 -38 -7 -62 22 -94 l20 -23
979 0 979 0 24 25 c33 32 33 84 1 122 l-24 28 -964 2 c-799 2 -968 0 -994 -11z"/>
<path d="M888 1449 c-205 -32 -281 -309 -123 -448 55 -48 100 -64 175 -64 182
1 304 172 245 344 -42 121 -161 189 -297 168z m107 -204 c55 -54 6 -135 -75
-126 -8 1 -25 13 -37 27 -68 75 41 171 112 99z"/>
<path d="M3701 1449 c-236 -45 -282 -374 -68 -483 178 -91 380 30 380 229 0
168 -146 286 -312 254z m106 -201 c40 -37 29 -102 -20 -123 -42 -18 -85 -2
-102 38 -33 79 60 144 122 85z"/>
</g>
</svg>
