

<svg version="1.0" xmlns="http://www.w3.org/2000/svg"
 width="512.000000pt" height="512.000000pt" viewBox="0 0 512.000000 512.000000"
 preserveAspectRatio="xMidYMid meet">
<g transform="translate(0.000000,512.000000) scale(0.100000,-0.100000)"
fill="currentcolor" stroke="none">
<path d="M162 4429 c-69 -34 -104 -71 -138 -144 l-24 -50 0 -1375 0 -1375 24
-50 c34 -73 69 -110 138 -144 l61 -31 189 0 188 0 0 -48 c0 -91 42 -208 112
-309 l29 -43 -344 0 -344 0 -27 -26 c-37 -38 -37 -110 0 -148 l27 -26 2507 0
2507 0 27 26 c37 38 37 110 0 148 -26 26 -28 26 -171 26 l-144 0 29 43 c70
101 112 220 112 315 l0 50 54 31 c59 33 94 72 125 141 19 42 21 65 21 401 l0
357 -281 562 c-302 605 -318 632 -414 676 l-50 24 -457 0 -458 0 0 388 0 389
-31 61 c-34 69 -71 104 -144 138 l-50 24 -1506 0 -1506 0 -61 -31z m3007 -175
c17 -4 42 -18 56 -32 l25 -25 0 -1368 0 -1369 -737 0 -738 0 -39 78 c-74 144
-225 266 -382 307 -75 19 -233 19 -308 0 -158 -41 -319 -172 -386 -312 l-34
-73 -156 0 c-233 0 -258 13 -268 135 l-5 65 175 0 175 0 27 26 26 27 0 247 0
247 -26 27 -27 26 -174 0 -173 0 2 963 c3 899 4 965 21 990 9 14 32 31 50 36
36 10 2844 15 2896 5z m1181 -1019 c12 -11 40 -55 61 -97 l39 -78 -369 0 -368
0 -25 -25 c-14 -14 -28 -42 -32 -63 -8 -48 -8 -776 0 -824 4 -21 18 -49 32
-63 l25 -25 598 0 599 0 0 -267 c-1 -218 -3 -272 -15 -287 -14 -19 -15 -19
-21 0 -18 48 -90 148 -143 196 -67 62 -172 121 -257 143 -75 19 -233 19 -308
0 -157 -41 -319 -172 -386 -312 l-35 -73 -142 0 -143 0 0 900 0 901 434 -3
c418 -3 435 -4 456 -23z m350 -675 l150 -300 -495 0 -495 0 0 300 0 300 345 0
345 0 150 -300z m-4310 -600 l0 -100 -95 0 -95 0 0 100 0 100 95 0 95 0 0
-100z m970 -341 c81 -38 153 -108 192 -187 31 -62 33 -73 33 -172 0 -93 -3
-111 -27 -163 -35 -74 -121 -160 -195 -195 -52 -24 -70 -27 -163 -27 -93 0
-111 3 -163 27 -74 35 -160 121 -195 195 -24 52 -27 70 -27 163 0 93 3 112 26
161 46 98 130 175 232 211 77 27 213 21 287 -13z m3120 0 c81 -38 153 -108
192 -187 31 -62 33 -73 33 -172 0 -93 -3 -111 -27 -163 -35 -73 -116 -155
-193 -193 -55 -26 -69 -29 -165 -29 -93 0 -111 3 -163 27 -74 35 -160 121
-195 195 -24 52 -27 70 -27 163 0 93 3 112 26 161 46 98 130 175 232 211 77
27 213 21 287 -13z m-758 -431 c10 -102 43 -188 110 -285 l29 -43 -1101 0
-1101 0 29 43 c69 100 112 220 112 311 l0 46 958 -2 957 -3 7 -67z"/>
<path d="M1026 3834 c-21 -21 -26 -36 -26 -74 0 -66 34 -100 100 -100 66 0
100 34 100 100 0 38 -5 53 -26 74 -21 21 -36 26 -74 26 -38 0 -53 -5 -74 -26z"/>
<path d="M1426 3834 c-21 -21 -26 -36 -26 -74 0 -38 5 -53 26 -74 l27 -26 677
0 677 0 27 26 c21 21 26 36 26 74 0 38 -5 53 -26 74 l-27 26 -677 0 -677 0
-27 -26z"/>
<path d="M1826 3434 c-21 -21 -26 -36 -26 -74 0 -38 5 -53 26 -74 l27 -26 477
0 477 0 27 26 c37 38 37 110 0 148 l-27 26 -477 0 -477 0 -27 -26z"/>
<path d="M1093 1434 c-62 -37 -93 -95 -93 -174 0 -123 77 -200 200 -200 123 0
200 77 200 200 0 123 -77 200 -201 200 -51 0 -73 -5 -106 -26z"/>
<path d="M4213 1434 c-128 -76 -128 -274 1 -349 33 -20 56 -25 106 -25 123 0
200 77 200 200 0 123 -77 200 -201 200 -51 0 -73 -5 -106 -26z"/>
</g>
</svg>
