<svg width="19" height="19" viewBox="0 0 19 19" fill="none" xmlns="http://www.w3.org/2000/svg">
<path d="M10.9192 10.1394H12.4791C12.8928 10.1394 13.2896 10.3037 13.5821 10.5962C13.8746 10.8888 14.039 11.2855 14.039 11.6993V13.2592C14.039 13.6729 14.2033 14.0696 14.4959 14.3622C14.7884 14.6547 15.1852 14.8191 15.5989 14.8191C16.0126 14.8191 16.4094 14.6547 16.7019 14.3622C16.9944 14.0696 17.1588 13.6729 17.1588 13.2592V7.80108C17.1589 7.59524 17.1184 7.39141 17.0394 7.20132C16.9604 7.01124 16.8446 6.83867 16.6986 6.69355L14.039 3.89978" stroke="white" stroke-width="1.5599" stroke-linecap="round" stroke-linejoin="round"/>
<path d="M10.9193 16.3789V3.89974C10.9193 3.48603 10.7549 3.08926 10.4624 2.79673C10.1699 2.50419 9.77308 2.33984 9.35937 2.33984H3.89974C3.48603 2.33984 3.08926 2.50419 2.79673 2.79673C2.50419 3.08926 2.33984 3.48603 2.33984 3.89974V16.3789" stroke="white" stroke-width="1.5599" stroke-linecap="round" stroke-linejoin="round"/>
<path d="M1.55981 16.3789H11.6991" stroke="white" stroke-width="1.5599" stroke-linecap="round" stroke-linejoin="round"/>
<path d="M2.33984 7.01953H10.9193" stroke="white" stroke-width="1.5599" stroke-linecap="round" stroke-linejoin="round"/>
</svg>
