<svg width="20" height="20" viewBox="0 0 20 20" fill="none" xmlns="http://www.w3.org/2000/svg">
<path d="M11.6666 10.8334H13.3333C13.7753 10.8334 14.1992 11.009 14.5118 11.3216C14.8244 11.6341 15 12.0581 15 12.5001V14.1667C15 14.6088 15.1756 15.0327 15.4881 15.3453C15.8007 15.6578 16.2246 15.8334 16.6666 15.8334C17.1087 15.8334 17.5326 15.6578 17.8451 15.3453C18.1577 15.0327 18.3333 14.6088 18.3333 14.1667V8.33508C18.3335 8.11515 18.2901 7.89737 18.2057 7.69428C18.1213 7.49118 17.9976 7.3068 17.8416 7.15175L15 4.16675" stroke="#155DFC" stroke-width="1.66667" stroke-linecap="round" stroke-linejoin="round"/>
<path d="M11.6667 17.5V4.16667C11.6667 3.72464 11.4911 3.30072 11.1785 2.98816C10.866 2.67559 10.442 2.5 10 2.5H4.16667C3.72464 2.5 3.30072 2.67559 2.98816 2.98816C2.67559 3.30072 2.5 3.72464 2.5 4.16667V17.5" stroke="#155DFC" stroke-width="1.66667" stroke-linecap="round" stroke-linejoin="round"/>
<path d="M1.66663 17.5H12.5" stroke="#155DFC" stroke-width="1.66667" stroke-linecap="round" stroke-linejoin="round"/>
<path d="M2.5 7.5H11.6667" stroke="#155DFC" stroke-width="1.66667" stroke-linecap="round" stroke-linejoin="round"/>
</svg>
