

<svg version="1.0" xmlns="http://www.w3.org/2000/svg"
 width="512.000000pt" height="512.000000pt" viewBox="0 0 512.000000 512.000000"
 preserveAspectRatio="xMidYMid meet">
<g transform="translate(0.000000,512.000000) scale(0.100000,-0.100000)"
fill="currentcolor" stroke="none">
<path d="M2485 4759 c-80 -12 -189 -67 -248 -126 -60 -59 46 113 -1173 -1908
-748 -1241 -1025 -1709 -1042 -1760 -21 -60 -24 -85 -20 -171 3 -92 7 -107 40
-176 70 -140 202 -236 353 -258 95 -13 4235 -13 4330 0 151 22 283 118 353
258 33 69 37 84 40 176 4 86 1 111 -20 171 -17 51 -294 519 -1042 1760 -1221
2024 -1114 1850 -1171 1907 -102 101 -250 148 -400 127z m135 -355 c33 -20
-83 168 1140 -1859 708 -1174 1014 -1691 1017 -1716 6 -44 -17 -89 -57 -113
-26 -15 -204 -16 -2160 -16 -1956 0 -2134 1 -2160 16 -40 24 -63 69 -57 113 3
25 309 542 1017 1716 1219 2021 1107 1838 1139 1858 34 21 86 21 121 1z"/>
<path d="M2450 3374 c-51 -22 -99 -73 -111 -119 -12 -41 -8 -220 12 -645 6
-118 14 -328 18 -467 8 -282 10 -289 82 -325 50 -26 156 -24 215 3 67 32 78
60 81 209 2 69 10 280 18 470 27 648 28 714 15 756 -16 50 -54 91 -105 115
-50 23 -174 25 -225 3z"/>
<path d="M2465 1571 c-184 -84 -190 -349 -10 -436 47 -24 64 -27 124 -23 82 4
135 35 186 107 28 40 30 49 30 129 0 77 -3 92 -26 127 -34 52 -54 69 -109 94
-57 26 -141 27 -195 2z"/>
</g>
</svg>
