
<svg width="20" height="20" viewBox="0 0 20 20" fill="none" xmlns="http://www.w3.org/2000/svg">
<g clip-path="url(#clip0_83_1540)">
<path d="M12.25 5.24998C12.0973 5.40576 12.0118 5.61519 12.0118 5.83332C12.0118 6.05144 12.0973 6.26088 12.25 6.41665L13.5833 7.74998C13.7391 7.90267 13.9485 7.9882 14.1666 7.9882C14.3848 7.9882 14.5942 7.90267 14.75 7.74998L17.3383 5.16248C17.605 4.89415 18.0575 4.97915 18.1575 5.34415C18.4093 6.25988 18.395 7.22837 18.1165 8.13631C17.8379 9.04425 17.3065 9.85407 16.5845 10.471C15.8624 11.088 14.9796 11.4865 14.0394 11.62C13.0991 11.7536 12.1402 11.6165 11.275 11.225L4.68332 17.8166C4.35179 18.1481 3.9022 18.3342 3.43344 18.3341C2.96467 18.334 2.51514 18.1478 2.18373 17.8162C1.85232 17.4847 1.66618 17.0351 1.66626 16.5664C1.66634 16.0976 1.85263 15.6481 2.18415 15.3166L8.77582 8.72498C8.38427 7.85974 8.24724 6.90089 8.38076 5.96061C8.51428 5.02033 8.91284 4.13753 9.52978 3.4155C10.1467 2.69347 10.9566 2.16208 11.8645 1.88351C12.7724 1.60493 13.7409 1.59071 14.6566 1.84248C15.0216 1.94248 15.1066 2.39415 14.8391 2.66248L12.25 5.24998Z" stroke="white" fill="none" stroke-width="1.66667" stroke-linecap="round" stroke-linejoin="round"/>
</g>
<defs>
<clipPath id="clip0_83_1540">
<rect width="20" height="20" fill="white"/>
</clipPath>
</defs>
</svg>
