<?xml version="1.0" standalone="no"?>
<!DOCTYPE svg PUBLIC "-//W3C//DTD SVG 20010904//EN"
 "http://www.w3.org/TR/2001/REC-SVG-20010904/DTD/svg10.dtd">
<svg version="1.0" xmlns="http://www.w3.org/2000/svg"
 width="512.000000pt" height="512.000000pt" viewBox="0 0 512.000000 512.000000"
 preserveAspectRatio="xMidYMid meet">
<metadata>
Created by potrace 1.16, written by Peter Selinger 2001-2019
</metadata>
<g transform="translate(0.000000,512.000000) scale(0.100000,-0.100000)"
fill="#000000" stroke="none">
<path d="M208 4943 c-180 -179 -208 -212 -208 -255 0 -25 351 -645 376 -664 8
-7 90 -31 183 -54 l168 -42 544 -544 c299 -299 549 -544 554 -544 6 0 37 27
70 60 l60 60 -555 556 c-391 391 -567 561 -595 574 -22 10 -101 33 -176 51
l-137 33 -141 247 c-78 135 -141 251 -141 255 0 5 53 62 118 127 l118 118 250
-142 c137 -78 250 -143 251 -144 2 -1 23 -77 47 -169 l43 -168 559 -559 c307
-307 564 -559 569 -559 6 0 37 27 70 60 l60 60 -548 548 -548 548 -35 140
c-44 176 -58 216 -86 233 -13 8 -155 91 -317 183 -245 140 -301 168 -334 168
-38 0 -47 -7 -219 -177z"/>
<path d="M3900 5106 c-414 -87 -728 -402 -806 -810 -17 -88 -22 -239 -11 -336
l8 -65 -933 -932 -933 -932 -60 11 c-95 16 -285 4 -395 -25 -374 -97 -666
-402 -747 -777 -28 -134 -24 -345 11 -475 94 -356 358 -627 711 -731 121 -36
358 -45 485 -20 524 107 884 596 821 1116 l-12 94 220 220 221 221 107 -107
c60 -59 117 -107 128 -108 46 -5 64 2 107 39 55 49 86 58 126 37 59 -30 60
-110 2 -161 -33 -30 -52 -73 -45 -104 4 -19 178 -199 568 -588 l562 -561 95
-45 c123 -58 164 -67 310 -67 146 0 187 9 309 67 77 37 108 59 176 126 89 89
132 157 170 266 22 63 25 87 25 226 0 140 -2 162 -25 228 -49 140 -60 152
-650 744 -537 540 -562 563 -597 563 -29 0 -47 -9 -89 -45 -64 -54 -102 -59
-143 -19 -38 38 -35 84 8 131 84 95 81 111 -54 247 l-110 112 223 220 222 221
55 -9 c88 -15 313 -3 403 21 280 74 510 255 642 504 93 176 115 267 115 487 0
255 -25 325 -111 318 -34 -3 -62 -27 -317 -275 l-279 -272 -204 67 -204 68
-70 207 -70 207 272 272 c182 183 274 282 279 302 4 18 1 40 -9 62 -13 26 -27
36 -69 50 -72 23 -347 29 -438 10z m2 -399 c-176 -177 -232 -239 -232 -257 0
-39 180 -570 200 -590 26 -26 565 -203 593 -195 12 4 127 111 256 238 l233
232 -5 -91 c-9 -158 -52 -283 -143 -420 -187 -283 -519 -421 -864 -360 -50 9
-83 11 -100 4 -33 -12 -1966 -1944 -1981 -1980 -9 -22 -9 -46 2 -106 96 -536
-301 -1017 -841 -1016 -530 1 -932 486 -834 1005 87 461 537 770 994 683 63
-12 89 -13 109 -4 15 6 469 453 1010 994 l984 984 -6 59 c-4 32 -11 92 -17
133 -17 121 11 297 69 423 131 290 430 493 731 496 l74 1 -232 -233z m-506
-2258 l62 -61 -26 -52 c-48 -94 -31 -217 42 -303 69 -82 220 -110 322 -58 l49
25 490 -490 490 -490 -360 -360 -360 -360 -491 491 -491 491 26 47 c22 38 26
59 26 121 0 65 -4 83 -30 130 -34 62 -97 114 -158 131 -60 16 -157 6 -206 -22
l-41 -23 -65 64 -65 65 357 357 c197 197 360 358 363 358 2 0 32 -28 66 -61z
m1545 -1667 c43 -209 -80 -457 -276 -555 -93 -46 -247 -62 -349 -36 l-48 12
323 323 c177 178 326 321 330 318 4 -2 13 -30 20 -62z"/>
<path d="M2495 2620 l-940 -940 60 -60 c33 -33 64 -60 70 -60 5 0 433 423 950
940 l940 940 -60 60 c-33 33 -64 60 -70 60 -5 0 -433 -423 -950 -940z"/>
<path d="M724 1526 c-11 -8 -82 -118 -157 -243 -102 -171 -137 -237 -137 -262
0 -24 33 -87 126 -244 70 -117 138 -224 152 -239 l26 -28 296 0 c295 0 297 0
317 23 12 12 80 120 152 241 89 149 131 228 131 248 0 35 -270 492 -300 508
-11 6 -131 10 -302 10 -231 0 -287 -3 -304 -14z m601 -317 c50 -84 94 -160 99
-170 7 -14 -13 -55 -90 -184 l-99 -165 -206 0 -206 0 -97 161 c-53 88 -96 165
-96 171 0 5 44 83 98 173 l97 164 205 0 205 1 90 -151z"/>
<path d="M3495 1620 l-60 -60 433 -432 432 -433 60 60 c33 33 60 64 60 70 0
13 -842 855 -855 855 -6 0 -37 -27 -70 -60z"/>
</g>
</svg>
