
<svg width="24" height="24" viewBox="0 0 24 24" fill="none" xmlns="http://www.w3.org/2000/svg">
<path d="M23.5 9H21.53C21.3551 8.44121 21.1309 7.89908 20.86 7.38L22.255 6C22.3019 5.95352 22.3391 5.89822 22.3644 5.83729C22.3898 5.77636 22.4029 5.71101 22.4029 5.645C22.4029 5.57899 22.3898 5.51364 22.3644 5.45271C22.3391 5.39178 22.3019 5.33648 22.255 5.29L18.72 1.745C18.6735 1.69814 18.6182 1.66094 18.5573 1.63555C18.4964 1.61017 18.431 1.5971 18.365 1.5971C18.299 1.5971 18.2336 1.61017 18.1727 1.63555C18.1118 1.66094 18.0565 1.69814 18.01 1.745L16.62 3.14C16.1009 2.86911 15.5588 2.64489 15 2.47V0.5C15 0.367392 14.9473 0.240215 14.8536 0.146447C14.7598 0.0526784 14.6326 0 14.5 0L9.5 0C9.36739 0 9.24021 0.0526784 9.14645 0.146447C9.05268 0.240215 9 0.367392 9 0.5V2.47C8.44121 2.64489 7.89908 2.86911 7.38 3.14L6 1.745C5.95352 1.69814 5.89822 1.66094 5.83729 1.63555C5.77636 1.61017 5.71101 1.5971 5.645 1.5971C5.57899 1.5971 5.51364 1.61017 5.45271 1.63555C5.39178 1.66094 5.33648 1.69814 5.29 1.745L1.745 5.28C1.69814 5.32648 1.66094 5.38178 1.63555 5.44271C1.61017 5.50364 1.5971 5.56899 1.5971 5.635C1.5971 5.70101 1.61017 5.76636 1.63555 5.82729C1.66094 5.88822 1.69814 5.94352 1.745 5.99L3.14 7.38C2.86911 7.89908 2.64489 8.44121 2.47 9H0.5C0.367392 9 0.240215 9.05268 0.146447 9.14645C0.0526784 9.24021 0 9.36739 0 9.5L0 14.5C0 14.6326 0.0526784 14.7598 0.146447 14.8536C0.240215 14.9473 0.367392 15 0.5 15H2.47C2.57622 15.3407 2.70313 15.6747 2.85 16C2.88303 16.074 2.93356 16.1389 2.99725 16.1891C3.06093 16.2392 3.13586 16.2732 3.21557 16.2879C3.29528 16.3027 3.37738 16.2978 3.45481 16.2738C3.53223 16.2498 3.60265 16.2073 3.66 16.15C6.61 13.15 6.635 13.245 6.575 12.895C5.615 7.335 12.85 4.14 16.335 8.61C16.9707 9.42218 17.3652 10.3967 17.4736 11.4224C17.5819 12.4481 17.3996 13.4836 16.9475 14.4106C16.4955 15.3377 15.7919 16.1189 14.917 16.6652C14.0422 17.2115 13.0314 17.5007 12 17.5C11.115 17.5 10.935 17.285 10.66 17.56C7.69 20.49 7.635 20.425 7.705 20.785C7.72005 20.8648 7.75433 20.9398 7.80486 21.0034C7.85539 21.067 7.92065 21.1173 7.995 21.15C8.3203 21.2969 8.65425 21.4238 8.995 21.53V23.5C8.995 23.6326 9.04768 23.7598 9.14145 23.8536C9.23522 23.9473 9.36239 24 9.495 24H14.5C14.6326 24 14.7598 23.9473 14.8536 23.8536C14.9473 23.7598 15 23.6326 15 23.5V21.53C15.5588 21.3551 16.1009 21.1309 16.62 20.86L18 22.255C18.0465 22.3019 18.1018 22.3391 18.1627 22.3644C18.2236 22.3898 18.289 22.4029 18.355 22.4029C18.421 22.4029 18.4864 22.3898 18.5473 22.3644C18.6082 22.3391 18.6635 22.3019 18.71 22.255L22.245 18.72C22.2919 18.6735 22.3291 18.6182 22.3544 18.5573C22.3798 18.4964 22.3929 18.431 22.3929 18.365C22.3929 18.299 22.3798 18.2336 22.3544 18.1727C22.3291 18.1118 22.2919 18.0565 22.245 18.01L20.85 16.62C21.1243 16.1013 21.3519 15.5591 21.53 15H23.5C23.6326 15 23.7598 14.9473 23.8536 14.8536C23.9473 14.7598 24 14.6326 24 14.5V9.5C24 9.36739 23.9473 9.24021 23.8536 9.14645C23.7598 9.05268 23.6326 9 23.5 9ZM23 14C21.13 14 20.805 13.885 20.67 14.37C19.835 17.475 18.855 16.025 21.17 18.37L18.34 21.2C17.035 19.89 16.87 19.57 16.44 19.815C13.645 21.4 14 19.71 14 23H10C10 20.435 10.165 20.875 9.095 20.5L11.185 18.435C17.685 19.28 21.185 10.905 16 6.865C11.5 3.365 4.83 7.02 5.55 12.8L3.5 14.905C3.12 13.82 3.5 14 1 14V10C2.87 10 3.195 10.115 3.33 9.63C4.165 6.525 5.145 7.975 2.83 5.63L5.66 2.8C6.965 4.11 7.13 4.43 7.56 4.185C10.355 2.6 10 4.29 10 1H14C14 2.87 13.885 3.195 14.37 3.33C17.475 4.165 16.025 5.145 18.37 2.83L21.2 5.66C19.89 6.965 19.57 7.13 19.815 7.56C21.4 10.355 19.71 10 23 10V14Z" fill="currentcolor"/>
<path d="M15.925 10.5C15.8964 10.42 15.8478 10.3487 15.784 10.2927C15.7201 10.2367 15.6431 10.1979 15.56 10.18C15.205 10.1 15.25 10.18 13.12 12.295L12.175 11.825L11.705 10.88C13.84 8.74499 13.9 8.79999 13.82 8.43999C13.8021 8.35698 13.7633 8.27991 13.7073 8.21605C13.6513 8.15219 13.58 8.10365 13.5 8.07499C12.8128 7.8303 12.0717 7.77821 11.357 7.92436C10.6423 8.0705 9.98115 8.40933 9.44512 8.90416C8.9091 9.39899 8.5186 10.031 8.31589 10.7318C8.11318 11.4325 8.10597 12.1754 8.29505 12.88L1.13504 20.14C0.773687 20.5013 0.570679 20.9915 0.570679 21.5025C0.570679 22.0135 0.773687 22.5036 1.13504 22.865C1.4964 23.2263 1.98651 23.4294 2.49754 23.4294C3.00858 23.4294 3.49869 23.2263 3.86004 22.865L11.12 15.705C11.8246 15.8941 12.5675 15.8869 13.2683 15.6841C13.9691 15.4814 14.601 15.0909 15.0959 14.5549C15.5907 14.0189 15.9295 13.3577 16.0757 12.643C16.2218 11.9283 16.1697 11.1872 15.925 10.5ZM3.15504 22.15C2.97834 22.3037 2.74989 22.3847 2.51581 22.3766C2.28172 22.3685 2.05944 22.2718 1.89382 22.1062C1.7282 21.9406 1.63157 21.7183 1.62345 21.4842C1.61532 21.2501 1.6963 21.0217 1.85004 20.845C9.81005 12.765 9.48505 13.27 9.35005 12.845C9.1842 12.3785 9.13636 11.8783 9.21081 11.3889C9.28525 10.8994 9.47966 10.436 9.7767 10.04C10.0737 9.64393 10.4642 9.32754 10.9132 9.11904C11.3622 8.91053 11.8558 8.81638 12.35 8.84499C10.68 10.5 10.435 10.58 10.65 11C11.405 12.5 11.38 12.54 11.58 12.64C12.98 13.34 13.24 13.585 13.58 13.25L15.165 11.67C15.1937 12.1642 15.0995 12.6579 14.891 13.1069C14.6825 13.5559 14.3661 13.9463 13.9701 14.2433C13.574 14.5404 13.1106 14.7348 12.6212 14.8092C12.1317 14.8837 11.6315 14.8358 11.165 14.67C10.73 14.5 11.225 14.195 3.15504 22.15Z" fill="currentcolor"/>
</svg>
