<svg width="19" height="19" viewBox="0 0 19 19" fill="none" xmlns="http://www.w3.org/2000/svg">
<path d="M11.4171 4.41966C11.2644 4.57544 11.1789 4.78487 11.1789 5.00299C11.1789 5.22112 11.2644 5.43055 11.4171 5.58633L12.7504 6.91966C12.9062 7.07235 13.1156 7.15788 13.3338 7.15788C13.5519 7.15788 13.7613 7.07235 13.9171 6.91966L16.5054 4.33216C16.7721 4.06383 17.2246 4.14883 17.3246 4.51383C17.5764 5.42956 17.5621 6.39805 17.2836 7.30599C17.005 8.21393 16.4736 9.02375 15.7516 9.64069C15.0296 10.2576 14.1468 10.6562 13.2065 10.7897C12.2662 10.9232 11.3073 10.7862 10.4421 10.3947L3.85043 16.9863C3.51891 17.3177 3.06931 17.5039 2.60055 17.5038C2.13179 17.5037 1.68226 17.3174 1.35085 16.9859C1.01944 16.6544 0.833296 16.2048 0.833374 15.736C0.833452 15.2673 1.01974 14.8177 1.35126 14.4863L7.94293 7.89466C7.55138 7.02942 7.41435 6.07056 7.54787 5.13029C7.6814 4.19001 8.07995 3.3072 8.6969 2.58517C9.31384 1.86314 10.1237 1.33175 11.0316 1.05318C11.9395 0.774612 12.908 0.760383 13.8238 1.01216C14.1888 1.11216 14.2738 1.56383 14.0063 1.83216L11.4171 4.41966Z" stroke="#9810FA" stroke-width="1.66667" stroke-linecap="round" stroke-linejoin="round"/>
</svg>
