<svg width="12" height="13" viewBox="0 0 12 13" fill="none" xmlns="http://www.w3.org/2000/svg">
<path fill-rule="evenodd" clip-rule="evenodd" d="M5.56434 0C4.63088 0 3.73564 0.370818 3.07558 1.03088C2.41553 1.69094 2.04471 2.58617 2.04471 3.51964C2.04471 4.4531 2.41553 5.34833 3.07558 6.00839C3.73564 6.66845 4.63088 7.03927 5.56434 7.03927C6.49781 7.03927 7.39304 6.66845 8.0531 6.00839C8.71316 5.34833 9.08398 4.4531 9.08398 3.51964C9.08398 2.58617 8.71316 1.69094 8.0531 1.03088C7.39304 0.370818 6.49781 0 5.56434 0ZM3.45256 3.51964C3.45256 2.95956 3.67505 2.42242 4.07109 2.02638C4.46712 1.63034 5.00426 1.40785 5.56434 1.40785C6.12442 1.40785 6.66156 1.63034 7.0576 2.02638C7.45363 2.42242 7.67612 2.95956 7.67612 3.51964C7.67612 4.07972 7.45363 4.61686 7.0576 5.01289C6.66156 5.40893 6.12442 5.63142 5.56434 5.63142C5.00426 5.63142 4.46712 5.40893 4.07109 5.01289C3.67505 4.61686 3.45256 4.07972 3.45256 3.51964ZM9.15437 8.8723C8.1372 8.1374 6.86379 7.7432 5.56153 7.7432C4.25926 7.7432 2.98515 8.13881 1.96939 8.87652C0.951509 9.61353 0.246878 10.6553 0.0152855 11.8309C-0.00404618 11.9221 -0.00505151 12.0163 0.0123284 12.108C0.0297082 12.1996 0.0651265 12.2869 0.116525 12.3647C0.167924 12.4425 0.234278 12.5094 0.311732 12.5613C0.389186 12.6133 0.476195 12.6494 0.567704 12.6674C0.659213 12.6855 0.753396 12.6852 0.844782 12.6665C0.936167 12.6478 1.02293 12.6112 1.10004 12.5587C1.17714 12.5062 1.24304 12.4389 1.29392 12.3608C1.34479 12.2826 1.37963 12.1951 1.39639 12.1033C1.55266 11.3114 2.03626 10.5667 2.7958 10.0155C3.55674 9.4636 4.53661 9.15176 5.56223 9.15105C6.58715 9.15105 7.56772 9.46219 8.32937 10.0134C9.08961 10.5631 9.57462 11.3072 9.73159 12.0998C9.768 12.2829 9.87567 12.4441 10.0309 12.5479C10.1862 12.6517 10.3763 12.6895 10.5594 12.6531C10.7426 12.6167 10.9037 12.509 11.0075 12.3538C11.1113 12.1985 11.1491 12.0084 11.1127 11.8253C10.879 10.6497 10.1737 9.60931 9.15437 8.8723Z" fill="#767676"/>
</svg>
